<svg width="164.093750" height="161.954102" viewBox="0 0 164.094 161.954" fill="none" xmlns="http://www.w3.org/2000/svg" xmlns:xlink="http://www.w3.org/1999/xlink">
	<desc>
			Created with Pixso.
	</desc>
	<defs/>
	<g opacity="0.200000">
		<path id="Vector" d="M99.12 20.26C115.62 56.16 132.25 92.07 148.88 128.24C149.41 127.71 149.81 127.32 150.21 126.92C155.14 119.53 158.73 111.74 161.12 103.16C163.25 95.63 164.32 87.98 164.05 80.32C163.65 62.63 158.06 46.53 147.28 32.4C140.9 23.96 133.05 17.09 124 11.68C116.95 7.45 109.37 4.16 101.12 2.44C99.79 2.17 98.46 1.91 97.13 1.65C96.19 1.38 95.66 1.78 95.26 2.57C91.8 9.3 88.35 16.04 84.89 22.9C78.9 34.65 72.91 46.26 67.06 58.01C62.53 66.86 58.01 75.83 53.49 84.68C48.17 95.11 42.85 105.67 37.39 116.1C33.53 123.75 29.67 131.41 25.68 139.06C25.02 140.38 25.15 141.18 26.35 142.1C28.74 143.95 31.14 145.93 33.4 147.78C34.2 148.44 34.6 148.3 35.13 147.38C38.99 139.72 42.71 132.07 46.57 124.41C51.89 113.72 57.35 102.89 62.67 92.2C67.99 81.38 73.44 70.69 78.77 59.86C84.49 48.51 90.21 37.16 95.8 25.67C96.73 23.82 97.53 22.11 98.46 20.26C98.86 20.26 98.99 20.26 99.12 20.26Z" fill="#737373" fill-opacity="1.000000" fill-rule="nonzero"/>
		<path id="Vector" d="M15.71 128.63C16.77 126.65 17.7 124.81 18.77 122.83C25.95 108.57 33.14 94.31 40.32 80.19C46.57 67.78 52.69 55.37 58.94 42.96C65.2 30.42 71.58 17.88 77.84 5.21C78.5 4.02 79.17 2.7 79.7 1.51C80.23 0.33 79.97 -0.2 78.64 0.06C73.71 0.72 68.66 1.12 63.74 2.17C50.83 4.95 39.52 10.75 29.41 19.07C19.3 27.39 11.71 37.68 6.53 49.7C3.47 56.82 1.47 64.22 0.54 71.87C-0.26 79.66 -0.26 87.32 1.07 95.1C2.8 105.4 6.39 114.91 11.71 123.75C12.51 125.2 13.44 126.52 14.38 127.84C14.64 128.24 14.78 128.63 14.91 129.03C15.31 128.9 15.57 128.77 15.71 128.63Z" fill="#737373" fill-opacity="1.000000" fill-rule="nonzero"/>
		<path id="Vector" d="M135.05 138.14C131.19 129.82 127.33 121.37 123.47 112.93L69.06 112.93C65.86 119.26 62.54 125.6 59.48 132.07C56.02 139.06 52.82 146.19 49.5 153.32C48.57 155.3 48.83 155.56 50.83 156.22C55.08 157.54 59.21 159.13 63.6 160.05C71.58 161.9 79.7 162.43 87.95 161.5C91.67 161.11 95.4 160.84 98.99 159.92C104.31 158.47 109.64 156.62 114.82 154.38C122.14 151.21 128.53 146.59 134.38 141.44C135.31 140.25 135.71 139.59 135.05 138.14Z" fill="#737373" fill-opacity="1.000000" fill-rule="nonzero"/>
		<path id="Vector" d="M116.82 98.27C113.89 91.67 110.83 85.21 107.9 78.61C104.84 72 101.91 65.54 98.85 58.94C98.59 58.28 98.19 57.62 97.66 56.69C96.33 59.2 95.26 61.31 94.2 63.42C93.13 65.54 92.07 67.78 90.87 69.89C86.08 79.4 81.29 88.9 76.5 98.27L116.82 98.27Z" fill="#737373" fill-opacity="1.000000" fill-rule="nonzero"/>
	</g>
</svg>
