<svg width="234.601562" height="46.000000" viewBox="0 0 234.602 46" fill="none" xmlns="http://www.w3.org/2000/svg" xmlns:xlink="http://www.w3.org/1999/xlink">
	<desc>
			Created with Pixso.
	</desc>
	<defs>
		<clipPath id="clip1_1545">
			<rect id="Google_Maps_Logo 2" rx="0.000000" width="233.600006" height="45.000000" transform="translate(0.500000 0.500000)" fill="white" fill-opacity="0"/>
		</clipPath>
	</defs>
	<rect id="Google_Maps_Logo 2" rx="0.000000" width="233.600006" height="45.000000" transform="translate(0.500000 0.500000)" fill="#FFFFFF" fill-opacity="0"/>
	<g clip-path="url(#clip1_1545)">
		<path id="Vector" d="M8.72 34.07C10.03 35.76 11.21 37.55 12.27 39.41C13.18 41.16 13.56 42.35 14.22 44.46C14.63 45.63 14.99 45.98 15.78 45.98C16.64 45.98 17.03 45.39 17.33 44.47C17.96 42.48 18.45 40.95 19.23 39.52C20.75 36.74 22.64 34.27 24.49 31.9C25 31.23 28.25 27.32 29.71 24.23C29.71 24.23 31.5 20.84 31.5 16.11C31.5 11.68 29.73 8.61 29.73 8.61L24.63 10.01L21.53 18.34L20.76 19.49L20.6 19.7L20.4 19.96L20.04 20.37L19.53 20.89L16.77 23.19L9.87 27.25L8.72 34.07Z" fill="#34A853" fill-opacity="1.000000" fill-rule="nonzero"/>
		<path id="Vector" d="M1.6 23.66C3.28 27.59 6.53 31.04 8.73 34.07L20.41 19.96C20.41 19.96 18.76 22.16 15.78 22.16C12.45 22.16 9.77 19.45 9.77 16.04C9.77 13.7 11.15 12.09 11.15 12.09L3.23 14.25L1.6 23.66Z" fill="#FBBC04" fill-opacity="1.000000" fill-rule="nonzero"/>
		<path id="Vector" d="M20.53 0.71C24.41 1.99 27.73 4.66 29.73 8.61L20.41 19.95C20.41 19.95 21.78 18.32 21.78 15.99C21.78 12.5 18.9 9.89 15.79 9.89C12.84 9.89 11.15 12.08 11.15 12.08L11.15 4.93L20.53 0.71Z" fill="#4285F4" fill-opacity="1.000000" fill-rule="nonzero"/>
		<path id="Vector" d="M3.74 5.72C6.05 2.9 10.13 -0.01 15.75 -0.01C18.47 -0.01 20.52 0.72 20.52 0.72L11.14 12.08L4.5 12.08L3.74 5.72Z" fill="#1A73E8" fill-opacity="1.000000" fill-rule="nonzero"/>
		<path id="Vector" d="M1.6 23.66C1.6 23.66 0.05 20.57 0.05 16.08C0.05 11.84 1.67 8.14 3.74 5.72L11.15 12.09L1.6 23.66Z" fill="#EA4335" fill-opacity="1.000000" fill-rule="nonzero"/>
		<path id="Vector" d="M161.07 37.29L161.07 13.12L164.12 13.12L172.36 27.84L172.49 27.84L180.73 13.12L183.78 13.12L183.78 37.29L180.73 37.29L180.73 22.94L180.87 18.89L180.73 18.89L173.32 32.16L171.53 32.16L164.12 18.89L163.99 18.89L164.12 22.94L164.12 37.29L161.07 37.29ZM192.68 37.8C190.96 37.8 189.52 37.29 188.36 36.28C187.2 35.26 186.62 33.93 186.62 32.26C186.62 30.45 187.3 29.05 188.68 28.02C190.04 27 191.73 26.49 193.73 26.49C195.52 26.49 196.98 26.82 198.13 27.5L198.13 27.03C198.13 25.81 197.72 24.84 196.91 24.11C196.09 23.38 195.09 23.01 193.89 23.01C193.01 23.01 192.21 23.22 191.5 23.64C190.78 24.06 190.29 24.66 190.02 25.4L187.25 24.18C187.62 23.19 188.36 22.28 189.46 21.43C190.56 20.58 192.02 20.16 193.83 20.16C195.9 20.16 197.62 20.79 198.99 22.02C200.36 23.26 201.04 25 201.04 27.26L201.04 37.26L198.13 37.26L198.13 34.96L198 34.96C196.78 36.86 195.01 37.8 192.68 37.8ZM193.18 34.96C194.43 34.96 195.57 34.48 196.6 33.53C197.62 32.57 198.14 31.45 198.14 30.13C197.28 29.41 195.99 29.05 194.27 29.05C192.79 29.05 191.68 29.38 190.93 30.03C190.18 30.69 189.8 31.45 189.8 32.33C189.8 33.14 190.14 33.78 190.82 34.25C191.51 34.73 192.29 34.96 193.18 34.96L193.18 34.96ZM212.45 37.8C211.21 37.8 210.1 37.53 209.12 36.99C208.14 36.45 207.41 35.77 206.93 34.96L206.79 34.96L206.93 37.26L206.93 44.55L203.88 44.55L203.88 20.71L206.8 20.71L206.8 23.01L206.93 23.01C207.41 22.2 208.15 21.52 209.13 20.98C210.11 20.44 211.22 20.17 212.45 20.17C214.55 20.17 216.36 21.02 217.88 22.71C219.4 24.39 220.16 26.49 220.16 28.99C220.16 31.48 219.4 33.58 217.88 35.26C216.36 36.95 214.55 37.8 212.45 37.8L212.45 37.8ZM211.95 34.96C213.37 34.96 214.58 34.41 215.59 33.33C216.61 32.25 217.12 30.79 217.12 28.99C217.12 27.19 216.61 25.74 215.59 24.66C214.58 23.57 213.37 23.03 211.95 23.03C210.52 23.03 209.3 23.57 208.3 24.65C207.29 25.73 206.79 27.18 206.79 29C206.79 30.83 207.29 32.28 208.3 33.36C209.3 34.44 210.52 34.98 211.95 34.98L211.95 34.96ZM228.25 37.8C226.44 37.8 224.95 37.35 223.77 36.45C222.59 35.55 221.73 34.42 221.17 33.07L223.88 31.92C224.75 34 226.21 35.03 228.29 35.03C229.23 35.03 230.02 34.81 230.62 34.39C231.23 33.97 231.53 33.4 231.53 32.71C231.53 31.63 230.79 30.89 229.31 30.51L226.04 29.7C225 29.43 224.02 28.92 223.09 28.17C222.16 27.41 221.7 26.39 221.7 25.11C221.7 23.65 222.34 22.46 223.6 21.55C224.87 20.63 226.38 20.18 228.12 20.18C229.55 20.18 230.84 20.51 231.96 21.18C233.06 21.81 233.92 22.82 234.37 24.03L231.73 25.14C231.13 23.68 229.9 22.95 228.02 22.95C227.12 22.95 226.35 23.14 225.74 23.52C225.12 23.9 224.81 24.42 224.81 25.08C224.81 26.02 225.52 26.66 226.96 27L230.17 27.78C231.69 28.14 232.82 28.76 233.55 29.63C234.28 30.51 234.64 31.5 234.64 32.61C234.64 34.09 234.04 35.32 232.85 36.32C231.66 37.32 230.13 37.8 228.24 37.8L228.25 37.8ZM70.85 22.88L58.37 22.88L58.37 26.66L67.23 26.66C66.8 31.96 62.47 34.22 58.39 34.22C57.1 34.23 55.82 33.97 54.62 33.46C53.43 32.96 52.34 32.22 51.43 31.28C50.52 30.34 49.8 29.23 49.32 28.01C48.83 26.78 48.6 25.47 48.61 24.16C48.61 18.43 52.96 14.03 58.4 14.03C62.6 14.03 65.08 16.76 65.08 16.76L67.67 14.02C67.67 14.02 64.34 10.24 58.27 10.24C50.53 10.24 44.55 16.9 44.55 24.09C44.55 31.14 50.18 38.01 58.46 38.01C65.75 38.01 71.09 32.92 71.09 25.39C71.09 23.8 70.86 22.88 70.86 22.88L70.85 22.88Z" fill="#767676" fill-opacity="1.000000" fill-rule="nonzero"/>
		<path id="Vector" d="M81.1 20.19C75.98 20.19 72.31 24.27 72.31 29.04C72.31 33.88 75.87 38.04 81.17 38.04C85.97 38.04 89.89 34.3 89.89 29.14C89.89 23.23 85.32 20.19 81.11 20.19L81.1 20.19ZM81.16 23.7C83.67 23.7 86.06 25.77 86.06 29.12C86.06 32.4 83.68 34.54 81.14 34.54C78.35 34.54 76.15 32.26 76.15 29.1C76.15 26.01 78.32 23.7 81.16 23.7L81.16 23.7Z" fill="#767676" fill-opacity="1.000000" fill-rule="nonzero"/>
		<path id="Vector" d="M100.15 20.19C95.02 20.19 91.35 24.27 91.35 29.04C91.35 33.88 94.91 38.04 100.22 38.04C105.01 38.04 108.94 34.3 108.94 29.14C108.94 23.23 104.37 20.19 100.16 20.19L100.15 20.19ZM100.2 23.7C102.72 23.7 105.1 25.77 105.1 29.12C105.1 32.4 102.73 34.54 100.19 34.54C97.39 34.54 95.19 32.26 95.19 29.1C95.19 26.01 97.37 23.7 100.2 23.7L100.2 23.7Z" fill="#767676" fill-opacity="1.000000" fill-rule="nonzero"/>
		<path id="Vector" d="M118.89 20.19C114.19 20.19 110.49 24.39 110.49 29.11C110.49 34.48 114.78 38.04 118.81 38.04C121.3 38.04 122.63 37.03 123.61 35.87L123.61 37.63C123.61 40.71 121.78 42.56 119 42.56C116.33 42.56 114.99 40.53 114.52 39.38L111.16 40.81C112.35 43.39 114.75 46.07 119.03 46.07C123.71 46.07 127.27 43.07 127.27 36.76L127.27 20.72L123.6 20.72L123.6 22.23C122.48 20.99 120.93 20.18 118.89 20.18L118.89 20.19ZM119.23 23.69C121.54 23.69 123.91 25.7 123.91 29.13C123.91 32.61 121.54 34.54 119.18 34.54C116.68 34.54 114.34 32.46 114.34 29.16C114.34 25.72 116.76 23.69 119.23 23.69L119.23 23.69ZM143.64 20.19C139.21 20.19 135.48 23.79 135.48 29.1C135.48 34.73 139.63 38.06 144.07 38.06C147.77 38.06 150.04 35.99 151.4 34.14L148.39 32.09C147.6 33.33 146.29 34.55 144.1 34.55C141.64 34.55 140.51 33.17 139.81 31.84L151.54 26.87L150.93 25.42C149.8 22.57 147.15 20.19 143.66 20.19L143.64 20.19ZM143.8 23.62C145.39 23.62 146.54 24.49 147.03 25.53L139.2 28.87C138.86 26.28 141.26 23.62 143.8 23.62L143.8 23.62ZM129.88 37.53L133.73 37.53L133.73 11.21L129.88 11.21L129.88 37.53Z" fill="#767676" fill-opacity="1.000000" fill-rule="nonzero"/>
	</g>
</svg>
