<svg width="38.000000" height="38.000000" viewBox="0 0 38 38" fill="none" xmlns="http://www.w3.org/2000/svg" xmlns:xlink="http://www.w3.org/1999/xlink">
	<desc>
			Created with Pixso.
	</desc>
	<defs>
		<clipPath id="clip1_1665">
			<rect id="Frame 16" rx="-0.500000" width="37.000000" height="37.000000" transform="translate(0.500000 0.500000)" fill="white" fill-opacity="0"/>
		</clipPath>
	</defs>
	<g clip-path="url(#clip1_1665)">
		<path id="svg_2" d="M22.04 22.11C22.04 22.17 22.06 22.21 22.1 22.21C22.14 22.21 22.17 22.19 22.19 22.17L34.04 15.32C34.24 15.2 34.48 15.13 34.72 15.14L37.33 15.14C37.73 15.14 38 15.38 38 15.73L38 20.16C38 20.7 37.86 21.01 37.33 21.29L34.17 22.99C34.14 23.01 34.1 23.02 34.07 23.02C34.03 23.02 33.99 23 33.99 22.9L33.99 17.73C33.99 17.67 33.97 17.63 33.92 17.63C33.89 17.63 33.86 17.64 33.83 17.66L25.18 22.67C24.98 22.79 24.75 22.86 24.51 22.85L18.78 22.85C18.37 22.85 18.11 22.62 18.11 22.26L18.11 15.87C18.11 15.82 18.08 15.78 18.04 15.78C18.01 15.78 17.98 15.8 17.95 15.81L12.24 18.87C12.18 18.9 12.17 18.93 12.17 18.95C12.17 18.97 12.17 18.99 12.21 19.03L16.3 22.66C16.35 22.71 16.39 22.75 16.39 22.79C16.39 22.82 16.33 22.85 16.25 22.85L12.57 22.85C12.28 22.85 12.05 22.81 11.9 22.67L9.42 20.47C9.42 20.46 9.41 20.45 9.39 20.45C9.38 20.44 9.36 20.44 9.35 20.44C9.32 20.44 9.3 20.45 9.27 20.46L5.14 22.67C4.89 22.81 4.72 22.85 4.47 22.85L0.67 22.85C0.26 22.85 0 22.61 0 22.25L0 17.91C0 17.37 0.13 17.06 0.66 16.78L3.84 15.08C3.87 15.06 3.89 15.05 3.92 15.05C3.97 15.05 4 15.1 4 15.19L4 21.01C4 21.08 4.01 21.1 4.07 21.1C4.1 21.1 4.13 21.08 4.16 21.07L14.89 15.31C15.09 15.19 15.35 15.13 15.6 15.14L21.37 15.14C21.77 15.14 22.04 15.37 22.04 15.73L22.04 22.11L22.04 22.11Z" fill="#131E29" fill-opacity="1.000000" fill-rule="nonzero"/>
	</g>
</svg>
