<svg width="38.000000" height="38.000000" viewBox="0 0 38 38" fill="none" xmlns="http://www.w3.org/2000/svg" xmlns:xlink="http://www.w3.org/1999/xlink">
	<desc>
			Created with Pixso.
	</desc>
	<defs>
		<clipPath id="clip1_1678">
			<rect id="Frame 17" rx="-0.500000" width="37.000000" height="37.000000" transform="translate(0.500000 0.500000)" fill="white" fill-opacity="0"/>
		</clipPath>
	</defs>
	<g clip-path="url(#clip1_1678)">
		<path id="Vector" d="M17.92 4.75C17.55 5.44 12.54 14.81 10.38 18.84C10.31 18.98 10.31 19.08 10.39 19.21C12.5 23.16 16.78 31.16 16.83 31.23C16.87 31.16 21.16 23.16 23.27 19.21C23.34 19.08 23.35 18.98 23.27 18.84C22.06 16.59 20.86 14.33 19.65 12.08C19.57 11.94 19.57 11.83 19.65 11.69C19.98 11.09 20.3 10.48 20.64 9.85C20.69 9.93 23.89 15.92 25.46 18.85C25.53 18.97 25.53 19.06 25.46 19.19C22.98 23.83 20.5 28.48 18.01 33.12C17.95 33.25 17.88 33.3 17.73 33.3C17.12 33.29 16.5 33.29 15.89 33.3C15.77 33.3 15.71 33.26 15.66 33.16C13.17 28.5 10.67 23.83 8.17 19.16C8.12 19.06 8.12 18.99 8.17 18.89C10.67 14.22 13.16 9.56 15.66 4.89C15.69 4.83 15.77 4.76 15.82 4.76C16.51 4.75 17.19 4.75 17.92 4.75Z" fill="#000000" fill-opacity="1.000000" fill-rule="nonzero"/>
		<path id="Vector" d="M20.76 7.61C19.62 9.74 16.46 15.63 14.75 18.83C14.67 18.97 14.67 19.07 14.74 19.21C15.95 21.46 17.16 23.71 18.36 25.96C18.44 26.1 18.44 26.21 18.36 26.36C18.03 26.96 17.71 27.56 17.37 28.19C17.33 28.12 14.13 22.13 12.55 19.2C12.48 19.07 12.48 18.98 12.55 18.85C15.03 14.21 17.52 9.57 20 4.92C20.07 4.8 20.13 4.74 20.28 4.75C20.9 4.75 21.51 4.75 22.12 4.75C22.24 4.75 22.3 4.78 22.35 4.88C24.85 9.55 27.34 14.22 29.84 18.89C29.89 18.98 29.9 19.06 29.84 19.16C27.34 23.82 24.85 28.49 22.35 33.16C22.32 33.21 22.25 33.29 22.19 33.29C21.5 33.3 20.82 33.29 20.1 33.29C20.15 33.2 25.16 23.83 27.63 19.21C27.71 19.07 27.7 18.97 27.63 18.83C25.51 14.89 21.23 6.89 21.19 6.81C21.18 6.83 21.02 7.12 20.76 7.61Z" fill="#000000" fill-opacity="1.000000" fill-rule="nonzero"/>
	</g>
</svg>
