<svg width="27.398438" height="30.201172" viewBox="0 0 27.3984 30.2012" fill="none" xmlns="http://www.w3.org/2000/svg" xmlns:xlink="http://www.w3.org/1999/xlink">
	<desc>
			Created with Pixso.
	</desc>
	<defs/>
	<path id="Combined-Shape" d="M13.69 0C18.1 0 22.67 0.37 27.31 1.17C27.38 3.03 27.46 5.91 27.32 8.34C27.03 13.78 25.83 18 23.55 21.63C21.29 25.24 17.77 28.35 13.69 30.2C9.62 28.35 6.1 25.24 3.83 21.63C1.56 18 0.36 13.78 0.07 8.34C-0.07 5.91 0.01 3.03 0.08 1.17C4.72 0.37 9.29 0 13.69 0ZM13.69 0.52C9.35 0.52 4.95 0.89 0.59 1.62C0.5 4.38 0.5 6.57 0.59 8.32C0.88 13.66 2.05 17.8 4.28 21.35C6.5 24.9 9.84 27.83 13.69 29.62C17.55 27.83 20.89 24.9 23.11 21.35C25.34 17.8 26.51 13.66 26.8 8.32C26.89 6.57 26.89 4.38 26.8 1.62C22.44 0.89 18.03 0.52 13.69 0.52ZM13.66 16.4C13.66 16.4 13.74 16.91 13.77 17.06C13.78 17.14 13.79 17.16 13.76 17.25C13.7 17.51 13.38 18.9 13.13 20.32L13.09 20.55C12.98 21.15 12.89 21.74 12.84 22.25C12.81 22.54 12.82 22.61 12.9 22.87C13.12 23.59 13.92 25.49 14.07 25.84C14.09 25.87 14.1 25.91 14.1 25.96L14.16 26.4C13.91 26.02 12.51 23.45 11.96 22.03C11.9 21.86 11.89 21.78 11.96 21.47C12.34 19.84 13.37 17.07 13.66 16.4ZM11.62 12.46C11.62 12.46 11.73 12.81 11.83 13.18L11.87 13.32C11.94 13.56 12 13.81 12.01 13.96C12.03 14.11 12.03 14.15 11.98 14.29C11.85 14.63 11.62 15.17 11.37 15.73L11.26 15.97C10.95 16.64 10.64 17.3 10.49 17.58C10.42 17.72 10.35 17.81 10.21 17.95C9.89 18.28 9.28 18.89 8.9 19.24C8.76 19.36 8.73 19.47 8.7 19.63C8.66 19.89 8.61 20.33 8.6 20.56C8.58 20.76 8.62 20.85 8.73 21.05C9.4 22.24 11.62 24.98 12.25 25.55C12.3 25.59 12.33 25.62 12.43 25.69C12.52 25.75 12.83 25.95 12.83 25.95C12.84 25.96 12.85 25.97 12.86 25.98L12.97 26.17C12.97 26.17 12.96 26.17 12.94 26.16L12.89 26.14C12.85 26.12 12.8 26.09 12.75 26.06L12.6 25.99C12.39 25.88 12.13 25.75 12 25.68C11.94 25.65 11.89 25.61 11.83 25.57C11.1 24.96 8.82 22.29 8.15 21.18C7.99 20.9 7.97 20.81 7.99 20.55C8.03 20.06 8.1 19.45 8.16 19.18C8.19 19.01 8.23 18.92 8.35 18.77C8.77 18.29 9.28 17.66 9.78 17L9.95 16.77C10.71 15.77 11.4 14.77 11.66 14.26C11.72 14.14 11.72 14.1 11.73 13.99C11.73 13.67 11.62 13.05 11.6 12.9C11.6 12.87 11.59 12.84 11.6 12.82L11.62 12.46ZM17.83 11.86L18.02 11.94C18.08 11.97 18.13 12 18.17 12.05C19.35 13.28 20.3 14.56 20.48 14.9C20.52 14.96 20.55 15.02 20.55 15.1C20.76 16.89 20.58 18.8 20.15 20.45C20.11 20.6 20.07 20.68 19.92 20.78C19.46 21.13 18.77 21.69 18.09 22.25L17.87 22.43C17.05 23.11 16.26 23.78 15.93 24.09C15.84 24.17 15.77 24.26 15.71 24.36C15.55 24.61 15.32 25.05 15.2 25.26L15.17 25.33C15.14 25.37 15.13 25.39 15.13 25.39C14.98 25.06 14.64 24.23 14.52 23.89C14.48 23.78 14.48 23.73 14.51 23.58C14.71 22.89 15.6 20.87 15.78 20.5L15.78 20.66C15.78 20.68 15.77 20.7 15.76 20.72C15.69 20.96 15.21 22.55 15.11 23.24C15.08 23.39 15.09 23.43 15.11 23.58C15.15 23.9 15.34 24.49 15.34 24.49C15.34 24.49 15.46 24.25 15.56 24.09C15.62 24.01 15.65 23.98 15.73 23.89C16.16 23.47 16.89 22.81 17.66 22.14L17.93 21.91C18.52 21.41 19.1 20.91 19.57 20.54C19.69 20.44 19.73 20.38 19.76 20.19C19.89 19.28 19.93 17.64 19.85 16.45C19.84 16.22 19.76 16 19.64 15.82C19.35 15.39 19 14.98 18.47 14.46C18.4 14.38 18.35 14.29 18.33 14.18C18.17 13.36 17.83 11.86 17.83 11.86ZM7.86 13.76C7.94 13.74 8.01 13.73 8.09 13.75C8.42 13.83 9.14 14.01 9.67 14.15C9.75 14.16 9.84 14.24 9.88 14.3L10 14.5C10.04 14.57 10.05 14.65 10.01 14.72C9.91 14.91 9.77 15.17 9.62 15.43L9.51 15.63C9.31 16 9.1 16.35 8.99 16.53C8.91 16.65 8.87 16.71 8.73 16.75C8.2 16.94 7.55 17.16 7.16 17.29C7.08 17.32 7.05 17.37 7.07 17.45C7.09 17.62 7.18 18.16 7.22 18.32C7.23 18.38 7.28 18.43 7.36 18.41C7.59 18.37 8.21 18.22 8.21 18.22C8.21 18.22 8.03 18.39 7.92 18.49C7.9 18.5 7.88 18.52 7.85 18.52C7.68 18.58 7.28 18.7 7.15 18.72C7.05 18.75 6.98 18.71 6.96 18.59C6.96 18.59 6.78 17.85 6.72 17.6C6.71 17.56 6.7 17.53 6.69 17.49C6.64 17.34 6.53 17.06 6.46 16.91C6.46 16.89 6.46 16.87 6.46 16.85C6.46 16.68 6.49 16.29 6.49 16.29C6.49 16.29 6.86 16.65 7.05 16.77C7.09 16.8 7.11 16.81 7.16 16.8C7.41 16.73 7.99 16.54 8.3 16.42C8.37 16.4 8.44 16.35 8.49 16.29C8.81 15.9 9.22 15.28 9.46 14.82C9.49 14.76 9.5 14.68 9.48 14.62L9.42 14.45C9.41 14.4 9.36 14.34 9.31 14.33C8.76 14.11 8.32 13.96 7.8 13.78L7.86 13.76ZM18.86 8.98C18.99 8.94 19.12 8.94 19.24 8.99C20.17 9.38 21.74 10.3 22.61 10.95C22.69 11.01 22.73 11.06 22.75 11.16C22.96 12.09 23.03 13.53 22.91 14.74C22.89 14.83 22.88 14.88 22.83 14.98C22.28 16.11 21.66 17.17 21 17.99L21.01 17.98C21.01 17.89 21.06 17.4 21.07 17.13C21.07 17.1 21.08 17.07 21.1 17.05C21.23 16.96 21.39 16.83 21.48 16.74C21.53 16.7 21.56 16.67 21.58 16.64C21.85 16.2 22.32 15.3 22.51 14.76C22.56 14.63 22.58 14.49 22.57 14.35C22.51 13.59 22.39 12.54 22.21 11.86C22.18 11.74 22.1 11.64 22 11.59C21.85 11.51 21.55 11.37 20.87 11.1C20.77 11.06 20.68 11.01 20.6 10.94C20.16 10.57 19.46 10 19.03 9.68C18.9 9.59 18.74 9.55 18.58 9.59C18.26 9.66 17.86 9.76 17.64 9.82C17.56 9.84 17.53 9.84 17.45 9.83C17.41 9.83 17.35 9.82 17.3 9.82L17.21 9.81C17.11 9.8 17.02 9.8 16.98 9.79L16.97 9.79C17.71 9.44 18.42 9.14 18.86 8.98ZM9.01 15.1C8.78 15.48 8.5 15.88 8.29 16.13C8.26 16.17 8.23 16.19 8.19 16.21C7.96 16.29 7.58 16.42 7.3 16.51L9.01 15.1ZM5.95 14.6L5.82 15.54L5.35 14.99C5.44 14.81 5.68 14.64 5.95 14.6ZM8.45 9.26L8.32 9.42C8.32 9.43 8.31 9.43 8.3 9.44C8.19 9.52 7.72 9.88 7.59 9.98C7.56 10.01 7.54 10.04 7.53 10.08C7.51 10.24 7.46 10.54 7.44 10.71C7.44 10.76 7.42 10.78 7.37 10.81C7.15 10.89 6.89 10.99 6.69 11.07C6.64 11.09 6.63 11.09 6.6 11.12C6.58 11.13 6.3 11.38 6.3 11.38C6.3 11.38 6.91 11.23 7.13 11.18C7.18 11.17 7.2 11.17 7.25 11.19C7.3 11.22 7.37 11.25 7.41 11.26C7.48 11.28 7.51 11.28 7.58 11.27C7.82 11.21 8.25 11.11 8.47 11.06C8.58 11.02 8.65 10.99 8.75 10.92C8.85 10.85 9.12 10.65 9.12 10.65C9.12 10.65 9.12 10.68 9.11 10.7C9.11 10.72 9.1 10.73 9.09 10.74C9.04 10.81 8.94 10.92 8.89 10.97C8.78 11.08 8.72 11.12 8.58 11.18C7.95 11.44 6.87 11.85 6.05 12.13C6 12.15 5.98 12.17 5.94 12.21C5.89 12.25 5.84 12.32 5.84 12.32C5.84 12.32 6.5 12.36 6.7 12.39C6.77 12.39 6.82 12.41 6.86 12.46C7.03 12.6 7.58 13.17 7.75 13.37C7.75 13.37 6.18 13.63 5.46 13.81C5.37 13.83 5.32 13.88 5.3 13.96C5.24 14.17 5.1 14.84 5.1 14.84C5.1 14.84 5.05 14.83 4.98 14.79C4.93 14.76 4.91 14.74 4.85 14.68C4.68 14.5 4.4 14.15 4.26 13.95C4.23 13.89 4.21 13.82 4.26 13.76C4.41 13.58 4.7 13.25 4.86 13.08C4.88 13.06 4.91 13.03 4.93 12.98C4.98 12.87 5.05 12.59 5.08 12.5L5.09 12.46L5.09 12.46C5.09 12.46 5.08 12.46 5.08 12.46L5.05 12.48C5.01 12.5 4.95 12.55 4.92 12.56C4.88 12.59 4.87 12.6 4.85 12.64C4.82 12.69 4.78 12.78 4.74 12.84C4.73 12.86 4.7 12.89 4.68 12.91C4.48 13.07 4.25 13.24 4.08 13.35C4.07 13.36 4.06 13.35 4.05 13.34C4.03 13.33 3.94 13.23 3.92 13.2C3.91 13.18 3.91 13.16 3.91 13.14C3.91 13.1 3.91 13.03 3.91 12.97C3.92 12.91 3.94 12.88 4.01 12.8C4.1 12.71 4.2 12.61 4.3 12.51C4.54 12.31 5.16 11.81 6.26 11.02C6.28 11 6.3 10.98 6.32 10.96C6.44 10.81 6.76 10.38 6.85 10.28C6.86 10.26 6.87 10.25 6.89 10.24C7.01 10.13 7.08 10.09 7.21 10.01C7.52 9.81 8.12 9.46 8.45 9.26ZM15.18 8.91C15.23 8.91 15.28 8.91 15.32 8.93L15.64 9.09C15.67 9.1 15.7 9.13 15.71 9.17C15.75 9.35 15.8 9.6 15.84 9.8C15.85 9.89 15.84 9.98 15.79 10.06C15.66 10.29 15.39 10.71 15.23 10.93C15.2 10.98 15.19 11.04 15.21 11.1C15.27 11.49 15.57 12.83 15.57 12.83L15.38 12.66C15.35 12.63 15.32 12.59 15.31 12.55C15.17 12.17 14.93 11.37 14.82 10.99C14.8 10.92 14.82 10.85 14.86 10.8C15.05 10.57 15.33 10.2 15.49 9.97C15.53 9.9 15.55 9.83 15.52 9.78C15.48 9.7 15.42 9.58 15.36 9.48C15.35 9.45 15.32 9.43 15.29 9.41L15.07 9.35C15.03 9.33 14.99 9.33 14.95 9.35C14.48 9.52 13.83 9.77 13.44 9.93C13.38 9.96 13.36 9.96 13.29 9.95C13.17 9.93 12.84 9.87 12.68 9.84C12.65 9.84 12.64 9.8 12.65 9.78L12.85 9.44C12.87 9.4 12.91 9.37 12.96 9.35C13.58 9.21 14.41 9.05 15.18 8.91ZM8.33 10.45C8.36 10.45 8.39 10.46 8.4 10.49C8.44 10.58 8.43 10.68 8.39 10.77C8.37 10.8 8.33 10.84 8.29 10.84L7.98 10.91C7.96 10.92 7.95 10.9 7.95 10.88L7.98 10.52C7.98 10.5 8 10.48 8.03 10.47L8.33 10.45ZM11.85 8.11C11.88 8.11 11.91 8.15 11.89 8.18L11.13 9.48C11.09 9.56 11.02 9.62 10.94 9.64L9.53 10.08C9.36 10.13 9.22 10.16 9.05 10.17C8.74 10.2 7.81 10.23 7.81 10.23L7.83 10.18C7.84 10.16 7.85 10.14 7.87 10.14L8.32 9.95C8.35 9.93 8.38 9.91 8.4 9.89L9.08 9.05C9.12 9 9.16 8.96 9.21 8.93C9.66 8.7 10.46 8.34 11.02 8.15C11.08 8.14 11.15 8.12 11.2 8.12L11.85 8.11ZM11.09 6.61C12.65 6.47 14.76 6.43 16.78 6.58C16.89 6.59 17 6.62 17.11 6.66C17.77 6.94 18.94 7.55 20.24 8.3C20.3 8.33 20.35 8.37 20.4 8.41C20.75 8.72 21.62 9.61 21.62 9.61L21.35 9.56C21.31 9.55 21.28 9.54 21.24 9.51C20.69 9.14 19.89 8.66 19.21 8.32C19.13 8.28 19.05 8.25 18.96 8.25C18.63 8.21 18.18 8.18 17.89 8.17C17.75 8.16 17.65 8.14 17.51 8.07C17.25 7.93 16.6 7.64 16.27 7.51C16.14 7.46 16.07 7.45 15.93 7.45C15.37 7.46 14.11 7.5 13.46 7.54C13.44 7.54 13.42 7.54 13.4 7.53L13.09 7.49C13.96 7.33 16.12 7.14 17.01 7.1L16.65 6.98C16.58 6.95 16.51 6.94 16.43 6.94C16.24 6.93 15.81 6.92 15.25 6.92L15.06 6.92C14.21 6.92 13.12 6.95 12.11 7.02C12.03 7.03 11.94 7.05 11.86 7.08C11.45 7.26 10.46 7.8 9.47 8.35L9.25 8.48C8.99 8.62 8.74 8.76 8.5 8.9C8.5 8.9 8.62 8.74 8.64 8.71C8.66 8.68 8.67 8.67 8.7 8.66C8.74 8.63 8.88 8.54 9.01 8.45L9.12 8.38C9.2 8.33 9.27 8.28 9.31 8.25C9.33 8.24 9.35 8.23 9.37 8.21C9.67 7.98 10.14 7.58 10.42 7.33C10.49 7.28 10.54 7.22 10.58 7.14C10.68 7 10.78 6.83 10.84 6.75C10.89 6.67 10.98 6.62 11.09 6.61ZM4.45 3.02C4.84 2.98 5.05 3.13 5.05 3.52L5.05 3.74C5.05 4.14 4.84 4.3 4.45 4.34C3.92 4.39 3.39 4.45 2.85 4.52L2.85 5.11C2.75 5.12 2.63 5.14 2.52 5.15L2.52 3.24C3.16 3.16 3.81 3.09 4.45 3.02ZM22.32 2.96C23.17 3.04 24.02 3.14 24.87 3.24L24.87 3.55C24.5 3.5 24.14 3.46 23.77 3.42L23.77 5.02C23.66 5 23.55 4.99 23.43 4.98L23.43 3.38C23.07 3.34 22.69 3.3 22.32 3.27L22.32 2.96ZM8.22 2.71L8.22 3.01C7.52 3.06 6.82 3.11 6.12 3.17L6.12 3.64C6.75 3.58 7.37 3.54 7.99 3.5L7.99 3.81C7.37 3.85 6.75 3.89 6.12 3.95L6.12 4.46C6.82 4.4 7.52 4.35 8.22 4.31L8.22 4.61C7.41 4.66 6.6 4.73 5.8 4.8L5.8 2.89C6.6 2.82 7.41 2.76 8.22 2.71ZM19.08 3.23C19.08 2.8 19.3 2.71 19.77 2.75C20.19 2.78 20.61 2.81 21.03 2.84C21.44 2.88 21.72 2.99 21.72 3.43L21.72 4.28C21.72 4.71 21.48 4.79 21.03 4.75C20.61 4.71 20.19 4.68 19.77 4.65C19.32 4.62 19.08 4.53 19.08 4.08L19.08 3.23ZM15.83 2.57C16.64 2.58 17.45 2.61 18.26 2.66L18.26 2.96C17.56 2.93 16.86 2.9 16.16 2.88L16.16 3.35C16.78 3.37 17.41 3.39 18.03 3.42L18.03 3.73C17.41 3.7 16.78 3.67 16.16 3.66L16.16 4.17C16.86 4.19 17.56 4.22 18.26 4.25L18.26 4.56C17.45 4.52 16.64 4.49 15.83 4.47L15.83 2.57ZM11.63 2.56L11.63 3.94C11.63 4.38 11.4 4.47 10.94 4.49C10.53 4.5 10.13 4.52 9.73 4.53C9.3 4.55 9.04 4.47 9.04 4.04L9.04 2.66L9.37 2.64L9.37 4.08C9.37 4.17 9.44 4.24 9.55 4.24C10.07 4.21 10.6 4.19 11.12 4.17C11.23 4.17 11.29 4.1 11.29 4.01L11.29 2.57C11.4 2.57 11.51 2.57 11.63 2.56ZM19.58 3.04C19.49 3.04 19.41 3.1 19.41 3.2L19.41 4.15C19.41 4.24 19.49 4.33 19.58 4.33C20.13 4.37 20.67 4.41 21.21 4.46C21.3 4.46 21.39 4.38 21.39 4.3L21.39 3.35C21.39 3.25 21.3 3.17 21.21 3.16C20.67 3.12 20.13 3.08 19.58 3.04ZM13.08 2.54C13.68 2.54 14.28 2.54 14.89 2.55L14.89 2.85C14.24 2.85 13.6 2.84 12.95 2.85C12.87 2.85 12.78 2.93 12.78 3.01L12.78 3.97C12.78 4.06 12.87 4.14 12.95 4.14C13.53 4.14 14.11 4.14 14.69 4.14L14.69 3.63C14.35 3.63 14.01 3.62 13.68 3.62L13.68 3.32C14.12 3.32 14.57 3.32 15.01 3.33L15.01 4.46C14.39 4.45 13.76 4.44 13.14 4.45C12.68 4.45 12.45 4.37 12.45 3.93L12.45 3.1C12.45 2.68 12.66 2.54 13.08 2.54ZM4.58 3.32L4.55 3.32C3.99 3.38 3.42 3.44 2.85 3.51L2.85 4.21C3.42 4.14 3.99 4.08 4.55 4.02C4.64 4.01 4.73 3.93 4.73 3.85L4.73 3.46C4.73 3.37 4.64 3.31 4.55 3.32L4.58 3.32Z" fill="#000000" fill-opacity="1.000000" fill-rule="evenodd"/>
</svg>
