<svg width="9.000000" height="8.979492" viewBox="0 0 9 8.97949" fill="none" xmlns="http://www.w3.org/2000/svg" xmlns:xlink="http://www.w3.org/1999/xlink">
	<desc>
			Created with Pixso.
	</desc>
	<defs/>
	<path id="Vector" d="M8.79 7.1L7.41 5.71C7.13 5.43 6.67 5.44 6.38 5.73L5.68 6.43C5.64 6.4 5.59 6.38 5.54 6.35C5.1 6.1 4.5 5.77 3.86 5.13C3.22 4.49 2.89 3.89 2.64 3.44C2.61 3.4 2.59 3.35 2.56 3.31L3.03 2.84L3.26 2.61C3.55 2.32 3.56 1.86 3.28 1.59L1.89 0.2C1.62 -0.08 1.16 -0.07 0.87 0.22L0.48 0.61L0.49 0.62C0.36 0.79 0.25 0.98 0.17 1.19C0.09 1.39 0.05 1.58 0.02 1.77C-0.16 3.29 0.53 4.68 2.42 6.57C5.03 9.17 7.13 8.98 7.22 8.97C7.42 8.94 7.61 8.9 7.8 8.82C8.01 8.74 8.2 8.63 8.37 8.5L8.38 8.51L8.78 8.12C9.06 7.83 9.07 7.37 8.79 7.1Z" fill="#FFFFFF" fill-opacity="1.000000" fill-rule="nonzero"/>
</svg>
