<svg width="7.968750" height="11.001953" viewBox="0 0 7.96875 11.002" fill="none" xmlns="http://www.w3.org/2000/svg" xmlns:xlink="http://www.w3.org/1999/xlink">
	<desc>
			Created with Pixso.
	</desc>
	<defs/>
	<path id="Vector" d="M3.98 0C1.78 0 0 1.78 0 3.98C0 6.71 3.56 10.71 3.71 10.88C3.85 11.04 4.1 11.04 4.25 10.88C4.4 10.71 7.96 6.71 7.96 3.98C7.96 1.78 6.17 0 3.98 0ZM3.98 5.98C2.87 5.98 1.98 5.08 1.98 3.98C1.98 2.87 2.87 1.97 3.98 1.97C5.08 1.97 5.98 2.87 5.98 3.98C5.98 5.08 5.08 5.98 3.98 5.98Z" fill="#FFFFFF" fill-opacity="1.000000" fill-rule="nonzero"/>
</svg>
