<svg width="11.000000" height="11.001953" viewBox="0 0 11 11.002" fill="none" xmlns="http://www.w3.org/2000/svg" xmlns:xlink="http://www.w3.org/1999/xlink">
	<desc>
			Created with Pixso.
	</desc>
	<defs/>
	<path id="Vector" d="M5.5 0C2.46 0 0 2.46 0 5.5C0 8.53 2.46 11 5.5 11C8.53 11 11 8.53 11 5.5C11 2.46 8.53 0 5.5 0ZM8.11 8.34C8.02 8.43 7.91 8.48 7.79 8.48C7.67 8.48 7.55 8.43 7.46 8.34L5.17 6.05C5.08 5.96 5.04 5.85 5.04 5.73L5.04 2.75C5.04 2.49 5.24 2.29 5.5 2.29C5.75 2.29 5.95 2.49 5.95 2.75L5.95 5.54L8.11 7.69C8.29 7.87 8.29 8.16 8.11 8.34Z" fill="#FFFFFF" fill-opacity="1.000000" fill-rule="nonzero"/>
</svg>
