<svg width="19.000000" height="23.000000" viewBox="0 0 19 23" fill="none" xmlns="http://www.w3.org/2000/svg" xmlns:xlink="http://www.w3.org/1999/xlink">
	<desc>
			Created with Pixso.
	</desc>
	<defs/>
	<path id="Vector" d="M14.76 22C13.1 22 11.76 20.65 11.76 19L11.76 11.63C11.76 9.98 13.1 8.63 14.76 8.63L15 8.63C16.65 8.63 18 9.98 18 11.63L18 19C18 20.65 16.65 22 15 22L14.76 22ZM4 22C2.34 22 1 20.65 1 19L1 4C1 2.34 2.34 1 4 1L4.23 1C5.89 1 7.23 2.34 7.23 4L7.23 19C7.23 20.65 5.89 22 4.23 22L4 22Z" stroke="#737373" stroke-opacity="1.000000" stroke-width="2.000000" stroke-linejoin="round"/>
</svg>
