<svg width="34.000000" height="34.000000" viewBox="0 0 34 34" fill="none" xmlns="http://www.w3.org/2000/svg" xmlns:xlink="http://www.w3.org/1999/xlink">
	<desc>
			Created with Pixso.
	</desc>
	<defs>
		<clipPath id="clip1_1354">
			<rect id="arrow (2) 1" rx="-0.500000" width="33.000004" height="32.999996" transform="translate(34.500000 34.500000) rotate(-179.999985)" fill="white" fill-opacity="0"/>
		</clipPath>
	</defs>
	<rect id="arrow (2) 1" rx="-0.500000" width="33.000004" height="32.999996" transform="translate(34.500000 34.500000) rotate(-179.999985)" fill="#FFFFFF" fill-opacity="0"/>
	<g clip-path="url(#clip1_1354)">
		<path id="Vector" d="M8 15.31L22.62 0.69C23.55 -0.24 25.06 -0.24 25.99 0.69C26.92 1.62 26.92 3.13 25.99 4.06L13.05 17L25.99 29.93C26.92 30.86 26.92 32.37 25.99 33.3C25.06 34.23 23.55 34.23 22.62 33.3L8 18.68C7.54 18.21 7.3 17.6 7.3 17C7.3 16.39 7.54 15.78 8 15.31Z" fill="#262626" fill-opacity="1.000000" fill-rule="nonzero"/>
	</g>
</svg>
