<svg width="23.000000" height="22.971680" viewBox="0 0 23 22.9717" fill="none" xmlns="http://www.w3.org/2000/svg" xmlns:xlink="http://www.w3.org/1999/xlink">
	<desc>
			Created with Pixso.
	</desc>
	<defs>
		<clipPath id="clip1_26689">
			<rect id="call-answer (3) 1" rx="-0.500000" width="8.000000" height="7.989073" transform="translate(7.500000 7.491211)" fill="white" fill-opacity="0"/>
		</clipPath>
	</defs>
	<ellipse id="Ellipse 1" cx="11.500000" cy="11.486328" rx="11.500000" ry="11.486037" fill="#CA0100" fill-opacity="1.000000"/>
	<rect id="call-answer (3) 1" rx="-0.500000" width="8.000000" height="7.989073" transform="translate(7.500000 7.491211)" fill="#FFFFFF" fill-opacity="0"/>
	<g clip-path="url(#clip1_26689)">
		<rect id="Frame 8" rx="-0.500000" width="7.999989" height="7.979642" transform="translate(7.500000 7.501953)" fill="#FFFFFF" fill-opacity="0"/>
		<path id="Vector" d="M15.79 14.1L14.41 12.71C14.13 12.43 13.67 12.44 13.38 12.73L12.68 13.43C12.64 13.4 12.59 13.38 12.54 13.35C12.1 13.11 11.5 12.77 10.86 12.13C10.22 11.5 9.89 10.89 9.64 10.45C9.61 10.4 9.59 10.35 9.56 10.31L10.03 9.84L10.26 9.61C10.55 9.32 10.56 8.87 10.28 8.59L8.89 7.2C8.62 6.92 8.16 6.93 7.87 7.22L7.48 7.61L7.49 7.62C7.36 7.79 7.25 7.98 7.17 8.19C7.09 8.39 7.05 8.58 7.02 8.77C6.84 10.29 7.53 11.68 9.42 13.57C12.03 16.18 14.13 15.98 14.22 15.97C14.42 15.95 14.61 15.9 14.8 15.82C15.01 15.74 15.2 15.63 15.37 15.5L15.38 15.51L15.78 15.12C16.06 14.83 16.07 14.38 15.79 14.1Z" fill="#FFFFFF" fill-opacity="1.000000" fill-rule="nonzero"/>
	</g>
</svg>
