<svg width="16.000000" height="16.000000" viewBox="0 0 16 16" fill="none" xmlns="http://www.w3.org/2000/svg" xmlns:xlink="http://www.w3.org/1999/xlink">
	<desc>
			Created with Pixso.
	</desc>
	<defs/>
	<path id="Vector" d="M8 0C3.58 0 0 3.58 0 8C0 12.41 3.58 16 8 16C12.41 16 16 12.41 16 8C16 3.58 12.41 0 8 0ZM8 14.4C4.47 14.4 1.6 11.52 1.6 8C1.6 4.47 4.47 1.59 8 1.59C11.52 1.59 14.39 4.47 14.39 8C14.39 11.52 11.52 14.4 8 14.4Z" fill="#737373" fill-opacity="1.000000" fill-rule="nonzero"/>
	<path id="Vector" d="M8.8 4L7.19 4L7.19 8.8L12 8.8L12 7.19L8.8 7.19L8.8 4Z" fill="#737373" fill-opacity="1.000000" fill-rule="nonzero"/>
</svg>
