<svg width="172.000000" height="36.539062" viewBox="0 0 172 36.5391" fill="none" xmlns="http://www.w3.org/2000/svg" xmlns:xlink="http://www.w3.org/1999/xlink">
	<desc>
			Created with Pixso.
	</desc>
	<defs/>
	<rect id="Rectangle 376" rx="9.500000" width="61.000000" height="19.000000" fill="#CA0100" fill-opacity="1.000000"/>
	<path id="10 лет превосходим ваши ожидания" d="M82.75 13.98Q83.64 12.8 83.64 10.85L83.64 10.73Q83.64 8.7 82.77 7.54Q82.42 7.08 81.96 6.8Q81.27 6.39 80.34 6.39Q79.62 6.39 79.06 6.67Q78.57 6.92 78.2 7.37L78.12 6.54L76.03 6.54L76.03 18.25L78.28 18.25L78.28 14.26Q78.59 14.61 78.98 14.82Q79.57 15.15 80.35 15.15Q81.15 15.15 81.78 14.82Q82.33 14.53 82.75 13.98ZM86.6 14.56Q87.58 15.15 88.92 15.15Q89.98 15.15 90.85 14.75Q91.54 14.43 92.01 13.9Q92.12 13.77 92.22 13.63L91.11 12.39Q90.83 12.75 90.45 12.98Q89.87 13.33 89.07 13.33Q88.45 13.33 87.99 13.06Q87.82 12.96 87.68 12.83Q87.53 12.7 87.42 12.55Q87.1 12.11 87.02 11.5L92.4 11.5L92.4 10.58Q92.4 8.57 91.41 7.48Q91.14 7.19 90.83 6.98Q89.95 6.39 88.67 6.39Q87.73 6.39 86.95 6.75Q86.78 6.83 86.62 6.93Q86.33 7.1 86.09 7.32Q85.56 7.79 85.22 8.48Q84.73 9.48 84.73 10.75L84.73 10.97Q84.73 12.38 85.37 13.37Q85.6 13.72 85.9 14.01Q86.22 14.33 86.6 14.56ZM102.87 8.45Q102.39 9.43 102.39 10.69L102.39 10.79Q102.39 12.6 103.26 13.72Q103.36 13.86 103.48 13.98Q103.8 14.33 104.19 14.57Q105.11 15.15 106.39 15.15Q107.68 15.15 108.59 14.57Q108.98 14.33 109.31 13.98Q109.48 13.79 109.62 13.59Q110.39 12.5 110.39 10.85L110.38 10.28Q110.27 8.78 109.51 7.81Q109.35 7.61 109.17 7.43Q108.87 7.14 108.52 6.93Q107.61 6.39 106.38 6.39Q105.25 6.39 104.38 6.86Q104.32 6.89 104.27 6.92Q103.91 7.13 103.62 7.41Q103.17 7.85 102.87 8.45ZM116.19 13.08Q115.83 13.33 115.3 13.33Q114.75 13.33 114.39 13.07Q114.22 12.94 114.09 12.76Q113.69 12.19 113.69 10.89L113.69 10.65Q113.69 9.36 114.09 8.79Q114.24 8.58 114.44 8.45Q114.78 8.21 115.28 8.21Q115.73 8.21 116.05 8.41Q116.2 8.5 116.32 8.62Q116.4 8.72 116.47 8.82Q116.71 9.18 116.72 9.69L118.84 9.69Q118.83 8.63 118.34 7.86Q118.14 7.55 117.87 7.29Q117.7 7.13 117.51 7Q116.63 6.39 115.32 6.39Q114.02 6.39 113.12 6.99Q112.77 7.22 112.47 7.55Q112.37 7.66 112.28 7.78Q111.43 8.9 111.43 10.67L111.43 10.82Q111.43 12.76 112.39 13.89Q112.43 13.95 112.48 14Q112.77 14.32 113.11 14.55Q114.03 15.15 115.34 15.15Q116.2 15.15 116.92 14.84Q117.02 14.8 117.11 14.76Q117.64 14.49 118.03 14.09Q118.22 13.88 118.37 13.65Q118.59 13.31 118.7 12.95Q118.84 12.53 118.84 12.07L116.72 12.07Q116.71 12.44 116.55 12.71Q116.46 12.86 116.32 12.99Q116.26 13.04 116.19 13.08ZM128.09 8.45Q127.6 9.43 127.6 10.69L127.6 10.79Q127.6 12.6 128.48 13.72Q128.58 13.86 128.69 13.98Q129.02 14.33 129.41 14.57Q130.33 15.15 131.61 15.15Q132.89 15.15 133.81 14.57Q134.2 14.33 134.53 13.98Q134.69 13.79 134.84 13.59Q135.61 12.5 135.61 10.85L135.6 10.28Q135.49 8.78 134.73 7.81Q134.57 7.61 134.39 7.43Q134.09 7.14 133.74 6.93Q132.83 6.39 131.6 6.39Q130.47 6.39 129.6 6.86Q129.54 6.89 129.48 6.92Q129.13 7.13 128.84 7.41Q128.39 7.85 128.09 8.45ZM72.03 15L74.3 15L74.3 6.54L66.95 6.54L66.95 15L69.21 15L69.21 8.37L72.03 8.37L72.03 15ZM93.83 6.54L93.83 15L97.9 15Q99.59 15 100.48 14.38Q100.83 14.13 101.04 13.8Q101.36 13.29 101.36 12.58Q101.36 12.2 101.22 11.87Q101.09 11.58 100.84 11.34Q100.32 10.84 99.42 10.67Q100.16 10.42 100.55 9.95Q100.77 9.69 100.86 9.38Q100.93 9.15 100.93 8.9Q100.93 8.29 100.67 7.83Q100.44 7.43 100.01 7.15Q99.09 6.54 97.36 6.54L93.83 6.54ZM124.77 6.54L123.35 9.07L121.96 6.54L119.53 6.54L121.93 10.68L119.43 15L121.85 15L123.35 12.34L124.86 15L127.28 15L124.78 10.68L127.18 6.54L124.77 6.54ZM137.6 11.57Q137.32 12.36 136.56 13.17L135.83 13.17L135.83 17.53L138.14 17.53L138.14 15L143.14 15L143.14 17.53L145.4 17.53L145.4 13.17L144.18 13.17L144.18 6.54L137.96 6.54L137.9 9.31Q137.87 10.77 137.6 11.57ZM153.75 6.54L151.5 6.54L148.67 11.75L148.67 6.54L146.4 6.54L146.4 15L148.67 15L151.5 9.78L151.5 15L153.75 15L153.75 6.54ZM162.84 6.54L160.63 12.33L158.43 6.54L155.63 6.54L155.63 15L157.89 15L157.89 9.89L159.87 15L161.39 15L163.41 9.81L163.41 15L165.67 15L165.67 6.54L162.84 6.54ZM87.92 8.39Q88.24 8.21 88.67 8.21Q89.28 8.21 89.66 8.51Q89.72 8.56 89.78 8.62Q89.79 8.64 89.8 8.65Q90.17 9.05 90.18 9.78L90.18 9.96L87.04 9.96Q87.16 9.12 87.58 8.67Q87.73 8.5 87.92 8.39ZM105.1 12.69Q104.64 12.06 104.64 10.85Q104.64 9.5 105.1 8.86Q105.3 8.57 105.57 8.41Q105.92 8.21 106.38 8.21Q106.85 8.21 107.2 8.42Q107.47 8.58 107.68 8.86Q108.14 9.51 108.14 10.69Q108.14 12.07 107.68 12.7Q107.47 12.98 107.2 13.13Q106.85 13.33 106.39 13.33Q105.9 13.33 105.53 13.11Q105.28 12.95 105.1 12.69ZM130.32 12.69Q129.86 12.06 129.86 10.85Q129.86 9.5 130.32 8.86Q130.52 8.57 130.79 8.41Q131.13 8.21 131.6 8.21Q132.06 8.21 132.41 8.42Q132.69 8.58 132.89 8.86Q133.35 9.51 133.35 10.69Q133.35 12.07 132.89 12.7Q132.69 12.98 132.42 13.13Q132.07 13.33 131.61 13.33Q131.11 13.33 130.75 13.11Q130.5 12.95 130.32 12.69ZM80.96 8.86Q81.38 9.5 81.38 10.68Q81.38 12.61 80.52 13.14Q80.2 13.33 79.76 13.33Q79.11 13.33 78.7 13.01Q78.44 12.82 78.28 12.5L78.28 9.03Q78.43 8.74 78.66 8.56Q79.06 8.22 79.75 8.22Q80.18 8.22 80.5 8.41Q80.77 8.57 80.96 8.86ZM97.49 9.97L96.09 9.97L96.09 8.35L97.36 8.35Q98.03 8.35 98.35 8.55Q98.45 8.61 98.52 8.69Q98.67 8.88 98.67 9.21Q98.67 9.42 98.58 9.57Q98.34 9.96 97.49 9.97ZM141.93 13.17L139.22 13.17Q140.09 11.75 140.16 9.42L140.17 8.41L141.93 8.41L141.93 13.17ZM96.09 13.19L96.09 11.49L97.96 11.49Q98.7 11.5 98.96 11.85Q99.1 12.05 99.1 12.35Q99.1 12.63 98.98 12.81Q98.71 13.19 97.91 13.19L96.09 13.19ZM16.59 33.24Q16.66 33.69 16.82 34L19.1 34L19.1 33.86Q18.77 33.25 18.76 32.04L18.76 28.38Q18.76 27.35 18.28 26.65Q18.09 26.39 17.84 26.17Q17.82 26.15 17.8 26.13Q16.89 25.39 15.36 25.39Q14.33 25.39 13.5 25.74Q12.67 26.1 12.22 26.72Q11.94 27.12 11.83 27.55Q11.77 27.81 11.77 28.08L14.03 28.08Q14.03 27.77 14.17 27.54Q14.24 27.42 14.35 27.33Q14.67 27.06 15.25 27.06Q15.84 27.06 16.15 27.36Q16.17 27.38 16.19 27.41Q16.21 27.43 16.23 27.45Q16.5 27.79 16.5 28.35L16.5 28.83L15.46 28.83Q13.57 28.84 12.58 29.56Q12.19 29.84 11.95 30.22Q11.58 30.8 11.58 31.62Q11.58 32.18 11.79 32.63Q12 33.08 12.4 33.43Q12.6 33.61 12.82 33.74Q13.51 34.15 14.46 34.15Q15.24 34.15 15.85 33.82Q16.26 33.6 16.59 33.24ZM46.92 27.45Q46.44 28.43 46.44 29.69L46.44 29.79Q46.44 31.6 47.31 32.72Q47.42 32.86 47.53 32.98Q47.85 33.33 48.24 33.57Q49.16 34.15 50.45 34.15Q51.73 34.15 52.65 33.57Q53.04 33.33 53.36 32.98Q53.53 32.79 53.67 32.59Q54.45 31.5 54.45 29.85L54.43 29.28Q54.33 27.78 53.56 26.81Q53.41 26.61 53.23 26.43Q52.92 26.14 52.57 25.93Q51.67 25.39 50.43 25.39Q49.31 25.39 48.44 25.86Q48.38 25.89 48.32 25.92Q47.97 26.13 47.68 26.41Q47.22 26.85 46.92 27.45ZM93.19 33.24Q93.26 33.69 93.42 34L95.7 34L95.7 33.86Q95.37 33.25 95.36 32.04L95.36 28.38Q95.36 27.35 94.88 26.65Q94.7 26.39 94.44 26.17Q94.42 26.15 94.4 26.13Q93.49 25.39 91.96 25.39Q90.93 25.39 90.1 25.74Q89.28 26.1 88.82 26.72Q88.54 27.12 88.43 27.55Q88.37 27.81 88.37 28.08L90.63 28.08Q90.63 27.77 90.77 27.54Q90.84 27.42 90.95 27.33Q91.28 27.06 91.85 27.06Q92.44 27.06 92.75 27.36Q92.77 27.38 92.8 27.41Q92.81 27.43 92.83 27.45Q93.1 27.79 93.1 28.35L93.1 28.83L92.06 28.83Q90.17 28.84 89.18 29.56Q88.79 29.84 88.55 30.22Q88.18 30.8 88.18 31.62Q88.18 32.18 88.39 32.63Q88.6 33.08 89 33.43Q89.2 33.61 89.42 33.74Q90.12 34.15 91.06 34.15Q91.84 34.15 92.45 33.82Q92.86 33.6 93.19 33.24ZM3.01 25.54L3.01 34L7.08 34Q8.77 34 9.66 33.38Q10.01 33.13 10.22 32.8Q10.54 32.29 10.54 31.58Q10.54 31.2 10.4 30.87Q10.27 30.58 10.02 30.34Q9.5 29.84 8.6 29.67Q9.34 29.42 9.73 28.95Q9.95 28.69 10.04 28.39Q10.11 28.15 10.11 27.9Q10.11 27.29 9.85 26.83Q9.62 26.43 9.19 26.15Q8.27 25.54 6.54 25.54L3.01 25.54ZM22.75 32.17L22.75 25.54L20.5 25.54L20.5 34L31.92 34L31.92 25.54L29.66 25.54L29.66 32.17L27.34 32.17L27.34 25.54L25.07 25.54L25.07 32.17L22.75 32.17ZM41.08 25.54L38.82 25.54L36 30.75L36 25.54L33.73 25.54L33.73 34L36 34L38.82 28.78L38.82 34L41.08 34L41.08 25.54ZM62.78 30.86L63.81 30.86L65.49 34L68.26 34L65.57 29.52L68.19 25.54L65.39 25.54L63.63 28.7L62.78 28.7L62.78 25.54L60.53 25.54L60.53 28.7L59.7 28.7L57.94 25.54L55.14 25.54L57.78 29.57L55.11 34L57.84 34L59.52 30.86L60.53 30.86L60.53 34L62.78 34L62.78 30.86ZM76.69 25.54L74.43 25.54L71.6 30.75L71.6 25.54L69.34 25.54L69.34 34L71.6 34L74.43 28.78L74.43 34L76.69 34L76.69 25.54ZM79.57 30.57Q79.3 31.36 78.53 32.17L77.81 32.17L77.81 36.53L80.11 36.53L80.11 34L85.12 34L85.12 36.53L87.38 36.53L87.38 32.17L86.16 32.17L86.16 25.54L79.94 25.54L79.88 28.31Q79.85 29.77 79.57 30.57ZM102.16 34L104.43 34L104.43 25.54L102.16 25.54L102.16 28.93L99.35 28.93L99.35 25.54L97.1 25.54L97.1 34L99.35 34L99.35 30.75L102.16 30.75L102.16 34ZM113.53 25.54L111.27 25.54L108.44 30.75L108.44 25.54L106.18 25.54L106.18 34L108.44 34L111.27 28.78L111.27 34L113.53 34L113.53 25.54ZM122.3 34L122.3 25.54L118.46 25.54Q116.87 25.57 115.92 26.36Q115.44 26.76 115.2 27.27Q114.97 27.76 114.97 28.37Q114.97 28.86 115.14 29.29Q115.24 29.52 115.38 29.74Q115.4 29.76 115.42 29.79Q115.82 30.35 116.55 30.69L114.71 34L117 34L118.62 31.07L120.05 31.07L120.05 34L122.3 34ZM49.15 31.69Q48.7 31.06 48.7 29.85Q48.7 28.5 49.15 27.86Q49.35 27.57 49.62 27.41Q49.97 27.21 50.43 27.21Q50.9 27.21 51.25 27.42Q51.53 27.58 51.73 27.86Q52.19 28.51 52.19 29.69Q52.19 31.07 51.73 31.7Q51.53 31.98 51.26 32.13Q50.91 32.33 50.45 32.33Q49.95 32.33 49.59 32.11Q49.34 31.95 49.15 31.69ZM6.67 28.97L5.27 28.97L5.27 27.35L6.54 27.35Q7.21 27.35 7.53 27.55Q7.63 27.61 7.7 27.69Q7.85 27.88 7.85 28.21Q7.85 28.42 7.76 28.57Q7.52 28.96 6.67 28.97ZM120.05 29.5L118.5 29.5Q118.02 29.49 117.68 29.26Q117.64 29.23 117.59 29.19Q117.4 29.03 117.31 28.82Q117.23 28.65 117.23 28.44Q117.23 28.26 117.29 28.11Q117.38 27.86 117.6 27.67Q117.64 27.64 117.68 27.61Q118.04 27.35 118.58 27.35L120.05 27.35L120.05 29.5ZM83.91 32.17L81.2 32.17Q82.07 30.75 82.14 28.42L82.15 27.41L83.91 27.41L83.91 32.17ZM15.61 32.32Q15.3 32.42 14.95 32.42Q14.47 32.42 14.18 32.19Q14.16 32.17 14.14 32.15Q14.01 32.03 13.93 31.89Q13.84 31.7 13.84 31.46L13.85 31.32Q13.88 30.96 14.07 30.71Q14.48 30.15 15.65 30.15L16.5 30.15L16.5 31.6Q16.46 31.67 16.42 31.73Q16.22 32.02 15.87 32.2Q15.74 32.27 15.61 32.32ZM92.21 32.32Q91.9 32.42 91.55 32.42Q91.08 32.42 90.79 32.19Q90.76 32.17 90.74 32.15Q90.61 32.03 90.54 31.89Q90.44 31.7 90.44 31.46L90.45 31.32Q90.48 30.96 90.67 30.71Q91.08 30.15 92.25 30.15L93.1 30.15L93.1 31.6Q93.06 31.67 93.02 31.73Q92.82 32.02 92.47 32.2Q92.35 32.27 92.21 32.32ZM5.27 32.19L5.27 30.49L7.14 30.49Q7.88 30.5 8.14 30.85Q8.28 31.05 8.28 31.35Q8.28 31.63 8.16 31.81Q7.89 32.19 7.09 32.19L5.27 32.19Z" fill="#262626" fill-opacity="1.000000" fill-rule="evenodd"/>
	<path id="10 лет превосходим ваши ожидания" d="M22.61 13.9Q23.59 12.65 23.59 10.29L23.59 8.2Q23.57 5.91 22.58 4.69Q22.31 4.34 21.96 4.1Q21.08 3.46 19.74 3.46Q18.42 3.46 17.54 4.09Q17.18 4.34 16.89 4.7Q15.9 5.93 15.9 8.32L15.9 10.41Q15.92 12.7 16.91 13.92Q17.19 14.27 17.54 14.52Q18.42 15.15 19.75 15.15Q21.1 15.15 21.98 14.51Q22.33 14.26 22.61 13.9ZM9.98 15L12.24 15L12.24 3.6L12 3.6L7.28 5.29L7.28 7.13L9.98 6.29L9.98 15ZM20.94 5.94Q21.33 6.58 21.33 8L21.33 10.7Q21.32 12.03 20.95 12.68Q20.8 12.94 20.58 13.1Q20.25 13.33 19.75 13.33Q19.27 13.33 18.94 13.11Q18.7 12.94 18.54 12.66Q18.16 11.98 18.16 10.59L18.16 7.82Q18.18 6.52 18.56 5.91Q18.71 5.66 18.93 5.52Q19.26 5.29 19.74 5.29Q20.22 5.29 20.55 5.52Q20.79 5.67 20.94 5.94ZM39.85 14.56Q40.83 15.15 42.17 15.15Q43.23 15.15 44.1 14.75Q44.79 14.43 45.26 13.9Q45.37 13.77 45.47 13.63L44.36 12.39Q44.08 12.75 43.7 12.98Q43.12 13.33 42.32 13.33Q41.7 13.33 41.24 13.06Q41.07 12.96 40.93 12.83Q40.78 12.7 40.67 12.55Q40.35 12.11 40.27 11.5L45.65 11.5L45.65 10.58Q45.65 8.57 44.66 7.48Q44.39 7.19 44.08 6.98Q43.2 6.39 41.92 6.39Q40.98 6.39 40.2 6.75Q40.03 6.83 39.87 6.93Q39.58 7.1 39.34 7.32Q38.81 7.79 38.47 8.48Q37.98 9.48 37.98 10.75L37.98 10.97Q37.98 12.38 38.62 13.37Q38.85 13.72 39.15 14.01Q39.47 14.33 39.85 14.56ZM36.54 15L36.54 6.54L30.17 6.54L30.02 10.13Q29.95 11.75 29.67 12.42Q29.48 12.86 29.16 13.03Q28.98 13.12 28.78 13.14L28.5 13.16L28.52 15L29.28 15Q30.21 14.98 30.82 14.54Q31.11 14.33 31.33 14.02Q32.02 13.07 32.15 10.98L32.29 8.37L34.28 8.37L34.28 15L36.54 15ZM51.15 8.35L53.86 8.35L53.86 6.54L46.22 6.54L46.22 8.35L48.89 8.35L48.89 15L51.15 15L51.15 8.35ZM41.17 8.39Q41.49 8.21 41.92 8.21Q42.53 8.21 42.91 8.51Q42.97 8.56 43.03 8.62Q43.04 8.64 43.05 8.65Q43.42 9.05 43.43 9.78L43.43 9.96L40.29 9.96Q40.41 9.12 40.83 8.67Q40.98 8.5 41.17 8.39Z" fill="#FFFFFF" fill-opacity="1.000000" fill-rule="evenodd"/>
</svg>
