<svg width="16.000000" height="18.000000" viewBox="0 0 16 18" fill="none" xmlns="http://www.w3.org/2000/svg" xmlns:xlink="http://www.w3.org/1999/xlink">
	<desc>
			Created with Pixso.
	</desc>
	<defs/>
	<path id="Vector" d="M9.86 9.38C9.86 7.96 11.01 6.81 12.43 6.81C13.85 6.81 15 7.96 15 9.38L15 14.43C15 15.85 13.85 17 12.43 17C11.01 17 9.86 15.85 9.86 14.43L9.86 9.38ZM1 3.56C1 2.14 2.14 1 3.56 1C4.98 1 6.13 2.14 6.13 3.56L6.13 14.43C6.13 15.85 4.98 17 3.56 17C2.14 17 1 15.85 1 14.43L1 3.56Z" stroke="#737373" stroke-opacity="1.000000" stroke-width="2.000000" stroke-linejoin="round"/>
</svg>
