<svg width="19.000000" height="16.000000" viewBox="0 0 19 16" fill="none" xmlns="http://www.w3.org/2000/svg" xmlns:xlink="http://www.w3.org/1999/xlink">
	<desc>
			Created with Pixso.
	</desc>
	<defs/>
	<path id="Vector" d="M18.2 4.79L16.95 4.79C16.6 4.79 16.29 5.03 16.19 5.37L15.42 8L15.34 8L15 6.95C14.89 6.62 14.59 6.4 14.25 6.4L12.66 6.4L12.66 5.59C12.66 5.15 12.31 4.79 11.87 4.79L10.29 4.79L10.29 4L11.08 4C11.51 4 11.87 3.64 11.87 3.2L11.87 0.79C11.87 0.35 11.51 0 11.08 0L4.75 0C4.31 0 3.95 0.35 3.95 0.79L3.95 3.2C3.95 3.64 4.31 4 4.75 4L5.54 4L5.54 4.79L3.16 4.79C2.73 4.79 2.37 5.15 2.37 5.59L2.37 8.79L1.58 8.79L1.58 8C1.58 7.55 1.23 7.2 0.79 7.2C0.35 7.2 0 7.55 0 8L0 11.2C0 11.64 0.35 12 0.79 12C1.23 12 1.58 11.64 1.58 11.2L1.58 10.4L2.37 10.4L2.37 12C2.37 12.11 2.4 12.23 2.45 12.34L3.57 14.74C3.7 15.02 3.98 15.2 4.29 15.2L13.83 15.2C14.11 15.2 14.37 15.05 14.51 14.8L15.22 13.59L15.48 13.59L16.22 15.49C16.33 15.79 16.63 16 16.95 16L18.2 16C18.64 16 19 15.64 19 15.2L19 5.59C19 5.15 18.64 4.79 18.2 4.79Z" fill="#262626" fill-opacity="1.000000" fill-rule="nonzero"/>
</svg>
