<svg width="16.679688" height="18.081055" viewBox="0 0 16.6797 18.0811" fill="none" xmlns="http://www.w3.org/2000/svg" xmlns:xlink="http://www.w3.org/1999/xlink">
	<desc>
			Created with Pixso.
	</desc>
	<defs/>
	<path id="Vector" d="M14.01 3.58L14.6 3L15.27 3.67L16.44 2.5L13.93 0L12.76 1.16L13.43 1.83L12.68 2.58C8.68 0.16 3.51 1.41 1.17 5.42C-1.17 9.42 0.08 14.43 4.01 16.85C7.92 19.26 13.1 18.01 15.43 14.01C17.52 10.59 16.94 6.25 14.01 3.58ZM8.34 15.51C5.09 15.51 2.5 12.92 2.5 9.67C2.5 6.42 5.09 3.83 8.34 3.83L8.34 9.67L14.18 9.67C14.18 12.92 11.6 15.51 8.34 15.51Z" fill="#262626" fill-opacity="1.000000" fill-rule="nonzero"/>
</svg>
