<svg width="14.144531" height="16.500000" viewBox="0 0 14.1445 16.5" fill="none" xmlns="http://www.w3.org/2000/svg" xmlns:xlink="http://www.w3.org/1999/xlink">
	<desc>
			Created with Pixso.
	</desc>
	<defs/>
	<path id="Vector" d="M7.07 0C8.94 0 10.74 0.74 12.07 2.07C13.39 3.39 14.14 5.19 14.14 7.07C14.14 9.99 11.91 13.06 7.54 16.34C7.4 16.44 7.24 16.5 7.07 16.5C6.9 16.5 6.73 16.44 6.6 16.34C2.23 13.06 0 9.99 0 7.07C0 5.19 0.74 3.39 2.07 2.07C3.39 0.74 5.19 0 7.07 0ZM7.07 1.57C5.61 1.57 4.21 2.15 3.18 3.18C2.15 4.21 1.57 5.61 1.57 7.07C1.57 9.2 3.23 11.65 6.63 14.38L7.07 14.72L7.5 14.38C10.9 11.65 12.57 9.2 12.57 7.07C12.57 5.61 11.99 4.21 10.96 3.18C9.92 2.15 8.53 1.57 7.07 1.57ZM7.07 5.5C7.48 5.5 7.88 5.66 8.18 5.96C8.47 6.25 8.64 6.65 8.64 7.07C8.64 7.48 8.47 7.88 8.18 8.18C7.88 8.47 7.48 8.64 7.07 8.64C6.65 8.64 6.25 8.47 5.96 8.18C5.66 7.88 5.5 7.48 5.5 7.07C5.5 6.65 5.66 6.25 5.96 5.96C6.25 5.66 6.65 5.5 7.07 5.5Z" fill="#737373" fill-opacity="1.000000" fill-rule="nonzero"/>
</svg>
