<svg width="198.000000" height="58.000000" viewBox="0 0 198 58" fill="none" xmlns="http://www.w3.org/2000/svg" xmlns:xlink="http://www.w3.org/1999/xlink">
	<desc>
			Created with Pixso.
	</desc>
	<defs>
		<clipPath id="clip9_488">
			<rect id="logo1 1" rx="-0.500000" width="197.000000" height="57.000000" transform="translate(0.500000 0.500000)" fill="white" fill-opacity="0"/>
		</clipPath>
	</defs>
	<rect id="logo1 1" rx="-0.500000" width="197.000000" height="57.000000" transform="translate(0.500000 0.500000)" fill="#FFFFFF" fill-opacity="0"/>
	<g clip-path="url(#clip9_488)">
		<path id="Vector" d="M35.3 7.27C41.21 20.13 47.16 32.99 53.12 45.94C53.31 45.75 53.45 45.61 53.59 45.47C55.36 42.82 56.64 40.03 57.5 36.96C58.26 34.27 58.64 31.52 58.55 28.78C58.41 22.45 56.41 16.68 52.55 11.62C50.26 8.6 47.45 6.14 44.21 4.2C41.68 2.69 38.97 1.51 36.01 0.89C35.54 0.8 35.06 0.7 34.58 0.61C34.25 0.52 34.06 0.66 33.92 0.94C32.68 3.35 31.44 5.76 30.2 8.22C28.06 12.43 25.91 16.59 23.82 20.79C22.2 23.96 20.58 27.18 18.96 30.34C17.05 34.08 15.15 37.86 13.19 41.59C11.81 44.33 10.43 47.08 9 49.82C8.76 50.29 8.81 50.58 9.24 50.91C10.1 51.57 10.96 52.28 11.76 52.94C12.05 53.17 12.19 53.13 12.38 52.8C13.76 50.05 15.1 47.31 16.48 44.57C18.39 40.74 20.34 36.87 22.25 33.04C24.15 29.16 26.1 25.33 28.01 21.46C30.06 17.39 32.11 13.33 34.11 9.21C34.44 8.55 34.73 7.94 35.06 7.27C35.2 7.27 35.25 7.27 35.3 7.27Z" fill="#262626" fill-opacity="1.000000" fill-rule="nonzero"/>
		<path id="Vector" d="M5.42 46.08C5.81 45.37 6.14 44.71 6.52 44C9.09 38.9 11.67 33.79 14.24 28.74C16.48 24.29 18.67 19.85 20.91 15.41C23.15 10.91 25.44 6.42 27.67 1.89C27.91 1.46 28.15 0.99 28.34 0.56C28.53 0.14 28.44 -0.05 27.96 0.04C26.2 0.28 24.39 0.42 22.62 0.8C18 1.79 13.95 3.87 10.33 6.85C6.71 9.83 4 13.51 2.14 17.82C1.04 20.37 0.33 23.01 0 25.76C-0.29 28.55 -0.29 31.29 0.19 34.08C0.8 37.76 2.09 41.17 4 44.33C4.28 44.85 4.62 45.33 4.95 45.8C5.05 45.94 5.09 46.08 5.14 46.23C5.28 46.18 5.38 46.13 5.42 46.08Z" fill="#262626" fill-opacity="1.000000" fill-rule="nonzero"/>
		<path id="Vector" d="M48.16 49.49C46.78 46.51 45.4 43.48 44.01 40.46L24.53 40.46C23.39 42.73 22.19 45 21.1 47.31C19.86 49.82 18.72 52.37 17.53 54.92C17.19 55.63 17.29 55.73 18 55.96C19.53 56.43 21.01 57 22.58 57.33C25.44 58 28.34 58.18 31.3 57.85C32.63 57.71 33.96 57.62 35.25 57.29C37.16 56.77 39.06 56.1 40.92 55.3C43.54 54.17 45.83 52.51 47.92 50.67C48.26 50.24 48.4 50.01 48.16 49.49Z" fill="#C2C2C4" fill-opacity="1.000000" fill-rule="nonzero"/>
		<path id="Vector" d="M41.63 35.21C40.58 32.85 39.49 30.53 38.44 28.17C37.35 25.8 36.3 23.49 35.2 21.12C35.11 20.89 34.96 20.65 34.77 20.32C34.3 21.22 33.92 21.98 33.53 22.73C33.16 23.49 32.77 24.29 32.34 25.05C30.63 28.45 28.91 31.85 27.2 35.21L41.63 35.21Z" fill="#CA0100" fill-opacity="1.000000" fill-rule="nonzero"/>
		<path id="Vector" d="M79.75 14.79C80.7 14.79 81.27 15.07 81.85 16.16L87.9 27.08C88.04 27.32 87.99 27.5 87.66 27.5L85.32 27.5C85.08 27.5 84.99 27.46 84.89 27.27L83.61 24.91L74.98 24.91L73.7 27.27C73.6 27.46 73.51 27.5 73.27 27.5L70.89 27.5C70.55 27.5 70.51 27.32 70.65 27.08L76.65 16.16C77.27 15.07 77.8 14.79 78.56 14.79L79.75 14.79ZM76.17 22.83L82.46 22.83L79.56 17.49C79.51 17.39 79.46 17.34 79.37 17.34L79.27 17.34C79.18 17.34 79.13 17.39 79.08 17.49L76.17 22.83Z" fill="#262626" fill-opacity="1.000000" fill-rule="nonzero"/>
		<path id="Vector" d="M100.57 14.79C103.09 14.79 104.05 15.78 104.05 17.77L104.05 18.62C104.05 19.66 103.67 20.41 102.85 20.93C103.71 21.41 104.14 22.21 104.14 23.3L104.14 24.34C104.14 26.28 103.33 27.51 100.9 27.51L89.99 27.51C89.61 27.51 89.42 27.32 89.42 26.94L89.42 15.31C89.42 14.93 89.61 14.74 89.99 14.74L100.57 14.74L100.57 14.79ZM92.28 20.08L99.81 20.08C101 20.08 101.38 19.71 101.38 19L101.38 18.38C101.38 17.63 101 17.3 100.05 17.3L92.57 17.3C92.42 17.3 92.33 17.39 92.33 17.53L92.28 20.08ZM92.28 22.07L92.28 24.76C92.28 24.91 92.37 25 92.52 25L100.05 25C101 25 101.38 24.67 101.38 23.91L101.38 23.2C101.38 22.45 101 22.07 99.81 22.07L92.28 22.07Z" fill="#262626" fill-opacity="1.000000" fill-rule="nonzero"/>
		<path id="Vector" d="M119.53 14.79C119.81 14.79 119.91 14.93 119.91 15.17L119.91 16.96C119.91 17.25 119.77 17.39 119.53 17.39L111.38 17.39C109.48 17.39 108.95 17.96 108.95 19.85L108.95 22.45C108.95 24.39 109.52 24.95 111.38 24.95L119.53 24.95C119.81 24.95 119.91 25.09 119.91 25.33L119.91 27.13C119.91 27.41 119.77 27.51 119.53 27.51L111.28 27.51C107.57 27.51 106.14 26.18 106.14 22.68L106.14 19.57C106.14 16.07 107.57 14.74 111.28 14.74L119.53 14.79Z" fill="#262626" fill-opacity="1.000000" fill-rule="nonzero"/>
		<path id="Vector" d="M136.2 14.79C137.16 14.79 137.73 15.07 138.3 16.16L144.35 27.08C144.49 27.32 144.44 27.5 144.11 27.5L141.78 27.5C141.54 27.5 141.44 27.46 141.35 27.27L140.06 24.91L131.44 24.91L130.15 27.27C130.06 27.46 129.96 27.5 129.72 27.5L127.34 27.5C127.01 27.5 126.96 27.32 127.1 27.08L133.2 16.21C133.82 15.12 134.34 14.84 135.1 14.84L136.2 14.84L136.2 14.79ZM132.63 22.83L138.92 22.83L136.01 17.49C135.96 17.39 135.92 17.34 135.82 17.34L135.73 17.34C135.63 17.34 135.58 17.39 135.53 17.49L132.63 22.83Z" fill="#262626" fill-opacity="1.000000" fill-rule="nonzero"/>
		<path id="Vector" d="M147.54 14.79C147.83 14.79 147.92 14.93 147.92 15.17L147.92 22.45C147.92 24.39 148.5 24.95 150.35 24.95L155.45 24.95C157.36 24.95 157.88 24.39 157.88 22.45L157.88 15.17C157.88 14.88 158.02 14.79 158.26 14.79L160.27 14.79C160.55 14.79 160.64 14.93 160.64 15.17L160.64 22.68C160.64 26.18 159.21 27.5 155.5 27.5L150.21 27.5C146.5 27.5 145.07 26.18 145.07 22.68L145.07 15.17C145.07 14.88 145.21 14.79 145.5 14.79L147.54 14.79Z" fill="#262626" fill-opacity="1.000000" fill-rule="nonzero"/>
		<path id="Vector" d="M177.03 14.79C177.32 14.79 177.46 14.93 177.46 15.17L177.46 16.96C177.46 17.25 177.32 17.39 177.03 17.39L171.27 17.39L171.27 27.13C171.27 27.41 171.12 27.5 170.89 27.5L168.89 27.5C168.6 27.5 168.51 27.36 168.51 27.13L168.51 17.39L162.74 17.39C162.46 17.39 162.31 17.25 162.31 16.96L162.31 15.17C162.31 14.88 162.46 14.79 162.74 14.79L177.03 14.79Z" fill="#262626" fill-opacity="1.000000" fill-rule="nonzero"/>
		<path id="Vector" d="M189.37 14.79C193.09 14.79 194.52 16.11 194.52 19.61L194.52 22.73C194.52 26.23 193.09 27.55 189.37 27.55L183.7 27.55C179.99 27.55 178.56 26.23 178.56 22.73L178.56 19.61C178.56 16.11 179.99 14.79 183.7 14.79L189.37 14.79ZM181.37 22.54C181.37 24.43 181.94 25 183.8 25L189.23 25C191.14 25 191.66 24.43 191.66 22.54L191.66 19.8C191.66 17.91 191.09 17.34 189.23 17.34L183.8 17.34C181.89 17.34 181.37 17.91 181.37 19.8L181.37 22.54Z" fill="#262626" fill-opacity="1.000000" fill-rule="nonzero"/>
		<path id="Vector" d="M76.17 35.87C77.94 35.87 78.56 36.49 78.56 38.14L78.56 39.61C78.56 41.26 77.89 41.88 76.17 41.88L73.51 41.88C71.79 41.88 71.12 41.26 71.12 39.61L71.12 38.14C71.12 36.49 71.79 35.87 73.51 35.87L76.17 35.87ZM72.46 39.51C72.46 40.41 72.69 40.65 73.6 40.65L76.13 40.65C77.03 40.65 77.27 40.36 77.27 39.51L77.27 38.24C77.27 37.34 77.03 37.1 76.13 37.1L73.6 37.1C72.69 37.1 72.46 37.38 72.46 38.24L72.46 39.51Z" fill="#737373" fill-opacity="1.000000" fill-rule="nonzero"/>
		<path id="Vector" d="M83.75 35.45C83.89 35.45 83.94 35.5 83.94 35.64L83.94 37.15L85.04 37.15C86.56 37.15 87.08 37.62 87.08 38.9L87.08 40.13C87.08 41.36 86.61 41.83 85.04 41.83L83.94 41.83L83.94 43.53C83.94 43.67 83.89 43.72 83.75 43.72L82.89 43.72C82.75 43.72 82.7 43.67 82.7 43.53L82.7 41.83L81.6 41.83C80.08 41.83 79.56 41.36 79.56 40.13L79.56 38.9C79.56 37.67 80.03 37.15 81.6 37.15L82.7 37.15L82.7 35.64C82.7 35.5 82.75 35.45 82.89 35.45L83.75 35.45ZM80.8 39.94C80.8 40.65 80.99 40.88 81.75 40.88L82.75 40.88L82.75 38.19L81.75 38.19C81.03 38.19 80.8 38.43 80.8 39.14L80.8 39.94ZM83.94 38.19L83.94 40.88L84.94 40.88C85.7 40.88 85.89 40.65 85.89 39.94L85.89 39.14C85.89 38.43 85.7 38.19 84.94 38.19L83.94 38.19Z" fill="#737373" fill-opacity="1.000000" fill-rule="nonzero"/>
		<path id="Vector" d="M89.08 37.2C89.23 37.2 89.28 37.24 89.28 37.39L89.28 40.65C89.28 40.69 89.32 40.74 89.32 40.74L89.42 40.74C89.47 40.74 89.51 40.74 89.51 40.69L92.09 37.72C92.37 37.34 92.57 37.2 93.14 37.2L93.61 37.2C94.14 37.2 94.37 37.39 94.37 38.09L94.37 41.69C94.37 41.83 94.33 41.88 94.18 41.88L93.33 41.88C93.18 41.88 93.14 41.83 93.14 41.69L93.14 38.42C93.14 38.38 93.14 38.33 93.09 38.33L92.99 38.33C92.94 38.33 92.9 38.33 92.9 38.38L90.32 41.36C89.99 41.73 89.85 41.88 89.28 41.88L88.8 41.88C88.28 41.88 88.04 41.69 88.04 40.98L88.04 37.39C88.04 37.24 88.08 37.2 88.23 37.2L89.08 37.2Z" fill="#737373" fill-opacity="1.000000" fill-rule="nonzero"/>
		<path id="Vector" d="M96.52 37.2C96.66 37.2 96.71 37.24 96.71 37.39L96.71 40.69C96.71 40.84 96.76 40.88 96.9 40.88L100.62 40.88L100.62 37.43C100.62 37.29 100.66 37.24 100.81 37.24L101.66 37.24C101.81 37.24 101.85 37.29 101.85 37.43L101.85 40.88L103 40.88C103.14 40.88 103.19 40.93 103.19 41.07L103.19 43.29C103.19 43.44 103.14 43.48 103 43.48L102.33 43.48C102.19 43.48 102.14 43.44 102.14 43.29L102.14 41.88L96.33 41.88C95.76 41.88 95.52 41.64 95.52 41.17L95.52 37.43C95.52 37.29 95.57 37.24 95.71 37.24L96.52 37.2Z" fill="#737373" fill-opacity="1.000000" fill-rule="nonzero"/>
		<path id="Vector" d="M104.95 37.2C105.09 37.2 105.14 37.24 105.14 37.39L105.14 40.65C105.14 40.69 105.19 40.74 105.19 40.74L105.28 40.74C105.33 40.74 105.38 40.74 105.38 40.69L107.95 37.72C108.24 37.34 108.43 37.2 109 37.2L109.48 37.2C110 37.2 110.24 37.39 110.24 38.09L110.24 41.69C110.24 41.83 110.19 41.88 110.05 41.88L109.19 41.88C109.05 41.88 109 41.83 109 41.69L109 38.42C109 38.38 109 38.33 108.95 38.33L108.9 38.33C108.85 38.33 108.81 38.33 108.81 38.38L106.23 41.36C105.9 41.73 105.76 41.88 105.19 41.88L104.71 41.88C104.19 41.88 103.95 41.69 103.95 40.98L103.95 37.39C103.95 37.24 104 37.2 104.14 37.2L104.95 37.2Z" fill="#737373" fill-opacity="1.000000" fill-rule="nonzero"/>
		<path id="Vector" d="M115.14 37.2C116.67 37.2 117.19 37.67 117.19 38.94L117.19 41.21C117.19 41.78 117.05 41.88 116.57 41.88L112.48 41.88C111.48 41.88 111.14 41.5 111.14 40.65L111.14 40.22C111.14 39.51 111.43 39.09 112.48 39.09L115.96 39.09L115.96 38.94C115.96 38.38 115.77 38.19 115 38.19L111.43 38.19C111.34 38.19 111.29 38.14 111.29 38.05L111.29 37.34C111.29 37.24 111.34 37.2 111.43 37.2L115.14 37.2ZM115.96 40.6L115.96 39.84L112.81 39.84C112.48 39.84 112.34 39.99 112.34 40.27L112.34 40.46C112.34 40.74 112.48 40.88 112.81 40.88L115.72 40.88C115.91 40.93 115.96 40.84 115.96 40.6Z" fill="#737373" fill-opacity="1.000000" fill-rule="nonzero"/>
		<path id="Vector" d="M123.34 37.2C123.86 37.2 124.05 37.43 124.05 37.86L124.05 41.64C124.05 41.78 124.01 41.83 123.86 41.83L123.01 41.83C122.86 41.83 122.82 41.78 122.82 41.64L122.82 38.38C122.82 38.28 122.77 38.24 122.67 38.24L120.82 38.24C120.62 38.24 120.62 38.33 120.58 38.42C120.48 38.9 120.34 40.27 120 41.03C119.77 41.55 119.48 41.83 118.77 41.83L117.96 41.83C117.86 41.83 117.77 41.78 117.77 41.64L117.77 41.03C117.77 40.88 117.81 40.84 117.96 40.84L118.57 40.84C118.81 40.84 119 40.79 119.19 40.32C119.39 39.84 119.53 38.99 119.67 37.72C119.72 37.39 119.86 37.15 120.39 37.15L123.34 37.15L123.34 37.2Z" fill="#737373" fill-opacity="1.000000" fill-rule="nonzero"/>
		<path id="Vector" d="M126.15 37.2C126.3 37.2 126.34 37.24 126.34 37.39L126.34 38.61L129.58 38.61C130.77 38.61 131.25 39.09 131.25 39.94L131.25 40.5C131.25 41.4 130.77 41.83 129.58 41.83L125.34 41.83C125.2 41.83 125.1 41.73 125.1 41.59L125.1 37.39C125.1 37.24 125.15 37.2 125.3 37.2L126.15 37.2ZM126.34 39.51L126.34 40.79C126.34 40.84 126.39 40.88 126.44 40.88L129.34 40.88C129.87 40.88 130.06 40.69 130.06 40.36L130.06 40.03C130.06 39.66 129.87 39.51 129.34 39.51L126.34 39.51Z" fill="#737373" fill-opacity="1.000000" fill-rule="nonzero"/>
		<path id="Vector" d="M133.25 37.2C133.39 37.2 133.44 37.24 133.44 37.39L133.44 38.99L137.35 38.99L137.35 37.39C137.35 37.24 137.39 37.2 137.54 37.2L138.4 37.2C138.54 37.2 138.59 37.24 138.59 37.39L138.59 41.69C138.59 41.83 138.54 41.88 138.4 41.88L137.54 41.88C137.39 41.88 137.35 41.83 137.35 41.69L137.35 39.99L133.44 39.99L133.44 41.69C133.44 41.83 133.39 41.88 133.25 41.88L132.39 41.88C132.25 41.88 132.2 41.83 132.2 41.69L132.2 37.39C132.2 37.24 132.25 37.2 132.39 37.2L133.25 37.2Z" fill="#737373" fill-opacity="1.000000" fill-rule="nonzero"/>
		<path id="Vector" d="M140.68 37.2C140.82 37.2 140.87 37.24 140.87 37.39L140.87 38.61L144.11 38.61C145.3 38.61 145.78 39.09 145.78 39.94L145.78 40.5C145.78 41.4 145.3 41.83 144.11 41.83L139.87 41.83C139.73 41.83 139.63 41.73 139.63 41.59L139.63 37.39C139.63 37.24 139.68 37.2 139.82 37.2L140.68 37.2ZM140.87 39.51L140.87 40.79C140.87 40.84 140.92 40.88 140.96 40.88L143.87 40.88C144.4 40.88 144.59 40.69 144.59 40.36L144.59 40.03C144.59 39.66 144.4 39.51 143.87 39.51L140.87 39.51ZM147.49 37.2C147.64 37.2 147.68 37.24 147.68 37.39L147.68 41.69C147.68 41.83 147.64 41.88 147.49 41.88L146.64 41.88C146.49 41.88 146.44 41.83 146.44 41.69L146.44 37.39C146.44 37.24 146.49 37.2 146.64 37.2L147.49 37.2Z" fill="#737373" fill-opacity="1.000000" fill-rule="nonzero"/>
		<path id="Vector" d="M149.78 37.2C149.92 37.2 149.97 37.24 149.97 37.39L149.97 40.65C149.97 40.69 150.02 40.74 150.02 40.74L150.12 40.74C150.16 40.74 150.21 40.74 150.21 40.69L152.78 37.72C153.07 37.34 153.26 37.2 153.83 37.2L154.31 37.2C154.83 37.2 155.07 37.39 155.07 38.09L155.07 41.69C155.07 41.83 155.02 41.88 154.88 41.88L154.02 41.88C153.88 41.88 153.83 41.83 153.83 41.69L153.83 38.42C153.83 38.38 153.83 38.33 153.78 38.33L153.69 38.33C153.64 38.33 153.59 38.33 153.59 38.38L151.02 41.36C150.69 41.73 150.54 41.88 149.97 41.88L149.5 41.88C148.97 41.88 148.73 41.69 148.73 40.98L148.73 37.39C148.73 37.24 148.78 37.2 148.92 37.2L149.78 37.2ZM149.88 35.26C149.88 35.16 149.92 35.07 150.02 35.07C150.07 35.07 150.16 35.12 150.26 35.16C150.45 35.31 151.07 35.83 151.92 35.83C152.78 35.83 153.4 35.31 153.59 35.16C153.69 35.12 153.74 35.07 153.78 35.07C153.88 35.07 153.92 35.16 153.92 35.26L153.92 35.68C153.92 35.83 153.92 35.92 153.78 36.01C153.5 36.25 152.69 36.63 151.88 36.63C151.07 36.63 150.3 36.3 149.97 36.01C149.83 35.87 149.78 35.78 149.78 35.68L149.78 35.26L149.88 35.26Z" fill="#737373" fill-opacity="1.000000" fill-rule="nonzero"/>
		<path id="Vector" d="M164.46 37.2C164.98 37.2 165.17 37.43 165.17 37.86L165.17 40.84L166.31 40.84C166.46 40.84 166.5 40.88 166.5 41.03L166.5 43.25C166.5 43.39 166.46 43.44 166.31 43.44L165.6 43.44C165.46 43.44 165.41 43.39 165.41 43.25L165.41 41.83L159.78 41.83L159.78 43.25C159.78 43.39 159.74 43.44 159.6 43.44L158.93 43.44C158.78 43.44 158.74 43.39 158.74 43.25L158.74 41.03C158.74 40.88 158.78 40.84 158.93 40.84L159.64 40.84C159.88 40.84 160.07 40.79 160.26 40.32C160.45 39.84 160.6 38.99 160.74 37.72C160.78 37.39 160.93 37.15 161.45 37.15L164.46 37.15L164.46 37.2ZM163.93 40.84L163.93 38.38C163.93 38.28 163.88 38.24 163.79 38.24L161.93 38.24C161.74 38.24 161.74 38.33 161.69 38.42C161.64 38.9 161.45 40.03 161.21 40.84L163.93 40.84Z" fill="#737373" fill-opacity="1.000000" fill-rule="nonzero"/>
		<path id="Vector" d="M168.27 37.2C168.41 37.2 168.46 37.24 168.46 37.39L168.46 40.65C168.46 40.69 168.5 40.74 168.5 40.74L168.6 40.74C168.65 40.74 168.69 40.74 168.69 40.69L171.27 37.72C171.55 37.34 171.75 37.2 172.32 37.2L172.79 37.2C173.32 37.2 173.55 37.39 173.55 38.09L173.55 41.69C173.55 41.83 173.51 41.88 173.36 41.88L172.51 41.88C172.36 41.88 172.32 41.83 172.32 41.69L172.32 38.42C172.32 38.38 172.32 38.33 172.27 38.33L172.17 38.33C172.12 38.33 172.08 38.33 172.08 38.38L169.5 41.36C169.17 41.73 169.03 41.88 168.46 41.88L167.98 41.88C167.46 41.88 167.22 41.69 167.22 40.98L167.22 37.39C167.22 37.24 167.27 37.2 167.41 37.2L168.27 37.2Z" fill="#737373" fill-opacity="1.000000" fill-rule="nonzero"/>
		<path id="Vector" d="M179.84 37.2C180.37 37.2 180.56 37.43 180.56 37.86L180.56 41.64C180.56 41.78 180.51 41.83 180.37 41.83L179.51 41.83C179.37 41.83 179.32 41.78 179.32 41.64L179.32 38.38C179.32 38.28 179.27 38.24 179.18 38.24L177.32 38.24C177.13 38.24 177.13 38.33 177.08 38.42C176.98 38.9 176.84 40.27 176.51 41.03C176.27 41.55 175.98 41.83 175.27 41.83L174.46 41.83C174.36 41.83 174.27 41.78 174.27 41.64L174.27 41.03C174.27 40.88 174.32 40.84 174.46 40.84L175.08 40.84C175.32 40.84 175.51 40.79 175.7 40.32C175.89 39.84 176.03 38.99 176.18 37.72C176.22 37.39 176.37 37.15 176.89 37.15L179.84 37.15L179.84 37.2Z" fill="#737373" fill-opacity="1.000000" fill-rule="nonzero"/>
		<path id="Vector" d="M186.04 37.2C187.23 37.2 187.52 37.58 187.52 38.61L187.52 39.42C187.52 39.8 187.37 39.89 187.04 39.89L182.7 39.89L182.7 40.08C182.7 40.6 182.89 40.84 183.66 40.84L187.23 40.84C187.32 40.84 187.37 40.88 187.37 40.98L187.37 41.69C187.37 41.78 187.32 41.83 187.23 41.83L183.51 41.83C181.99 41.83 181.46 41.36 181.46 40.13L181.46 38.9C181.46 37.67 181.94 37.15 183.51 37.15L186.04 37.2ZM182.7 39.09L186.18 39.09C186.28 39.09 186.32 39.04 186.32 38.95L186.32 38.57C186.32 38.24 186.18 38.09 185.8 38.09L183.66 38.09C182.89 38.09 182.7 38.33 182.7 38.85L182.7 39.09Z" fill="#737373" fill-opacity="1.000000" fill-rule="nonzero"/>
		<path id="Vector" d="M192.85 37.2C194.37 37.2 194.9 37.67 194.9 38.95L194.9 40.17C194.9 41.4 194.42 41.88 192.85 41.88L189.61 41.88L189.61 43.58C189.61 43.72 189.56 43.77 189.42 43.77L188.56 43.77C188.42 43.77 188.37 43.72 188.37 43.58L188.37 38.9C188.37 37.67 188.85 37.15 190.42 37.15L192.85 37.2ZM189.61 40.84L192.71 40.84C193.47 40.84 193.66 40.6 193.66 39.89L193.66 39.13C193.66 38.42 193.47 38.19 192.71 38.19L190.56 38.19C189.85 38.19 189.61 38.42 189.61 39.13L189.61 40.84Z" fill="#737373" fill-opacity="1.000000" fill-rule="nonzero"/>
	</g>
</svg>
