<svg width="20.000000" height="20.000000" viewBox="0 0 20 20" fill="none" xmlns="http://www.w3.org/2000/svg" xmlns:xlink="http://www.w3.org/1999/xlink">
	<desc>
			Created with Pixso.
	</desc>
	<defs/>
	<path id="Vector" d="M18.5 4.62C15.51 0 9.4 -1.38 4.66 1.5C0.05 4.37 -1.45 10.62 1.55 15.25L1.8 15.62L0.8 19.37L4.54 18.37L4.91 18.62C6.53 19.5 8.28 20 10.02 20C11.89 20 13.76 19.5 15.38 18.5C20 15.5 21.37 9.37 18.5 4.62ZM15.88 14.25C15.38 15 14.76 15.5 13.89 15.62C13.39 15.62 12.76 15.87 10.27 14.87C8.15 13.87 6.41 12.25 5.16 10.37C4.41 9.5 4.04 8.37 3.91 7.25C3.91 6.25 4.29 5.37 4.91 4.75C5.16 4.5 5.41 4.37 5.66 4.37L6.28 4.37C6.53 4.37 6.78 4.37 6.91 4.87C7.16 5.5 7.78 7 7.78 7.12C7.91 7.25 7.91 7.5 7.78 7.62C7.91 7.87 7.78 8.12 7.66 8.25C7.53 8.37 7.41 8.62 7.28 8.75C7.03 8.87 6.91 9.12 7.03 9.37C7.53 10.12 8.15 10.87 8.78 11.5C9.52 12.12 10.27 12.62 11.14 13C11.39 13.12 11.64 13.12 11.77 12.87C11.89 12.62 12.51 12 12.76 11.75C13.01 11.5 13.14 11.5 13.39 11.62L15.38 12.62C15.63 12.75 15.88 12.87 16.01 13C16.13 13.37 16.13 13.87 15.88 14.25Z" fill="#737373" fill-opacity="1.000000" fill-rule="nonzero"/>
</svg>
