<svg width="17.000000" height="19.000000" viewBox="0 0 17 19" fill="none" xmlns="http://www.w3.org/2000/svg" xmlns:xlink="http://www.w3.org/1999/xlink">
	<desc>
			Created with Pixso.
	</desc>
	<defs/>
	<path id="Vector" d="M16.24 4.46L16.26 4.44L12.42 0.52L11.33 1.64L13.5 3.87C12.53 4.25 11.84 5.2 11.84 6.33C11.84 7.79 13 8.97 14.42 8.97C14.78 8.97 15.14 8.89 15.45 8.75L15.45 16.36C15.45 16.94 14.99 17.41 14.42 17.41C13.85 17.41 13.39 16.94 13.39 16.36L13.39 11.61C13.39 10.44 12.47 9.5 11.33 9.5L10.3 9.5L10.3 2.11C10.3 0.94 9.38 0 8.24 0L2.06 0C0.92 0 0 0.94 0 2.11L0 19L10.3 19L10.3 11.08L11.84 11.08L11.84 16.36C11.84 17.81 13 19 14.42 19C15.84 19 17 17.81 17 16.36L17 6.33C17 5.6 16.71 4.94 16.24 4.46ZM8.24 7.38L2.06 7.38L2.06 2.11L8.24 2.11L8.24 7.38ZM14.42 7.38C13.85 7.38 13.39 6.91 13.39 6.33C13.39 5.75 13.85 5.27 14.42 5.27C14.99 5.27 15.45 5.75 15.45 6.33C15.45 6.91 14.99 7.38 14.42 7.38Z" fill="#262626" fill-opacity="1.000000" fill-rule="nonzero"/>
</svg>
