<!-- icon666.com - MILLIONS vector ICONS FREE --><svg id="Icon" enable-background="new 0 0 96 96" viewBox="0 0 96 96" xmlns="http://www.w3.org/2000/svg"><path id="Gift" d="m83 24h-19.019c1.261-1.674 2.019-3.748 2.019-6 0-5.514-4.486-10-10-10-3.273 0-6.174 1.588-8 4.026-1.825-2.438-4.727-4.026-8-4.026-5.514 0-10 4.486-10 10 0 2.252.758 4.326 2.019 6h-19.019c-3.309 0-6 2.691-6 6v8c0 2.607 1.673 4.824 4 5.65v38.35c0 3.309 2.691 6 6 6h62c3.309 0 6-2.691 6-6v-38.35c2.327-.826 4-3.043 4-5.65v-8c0-3.309-2.691-6-6-6zm-41 16v-12h12v12zm12 4v40h-12v-40zm2-32c3.309 0 6 2.691 6 6s-2.691 6-6 6h-6v-6c0-3.309 2.691-6 6-6zm-22 6c0-3.309 2.691-6 6-6s6 2.691 6 6v6h-6c-3.309 0-6-2.691-6-6zm-23 12c0-1.103.897-2 2-2h25v12h-25c-1.103 0-2-.897-2-2zm4 52v-38h23v40h-21c-1.103 0-2-.897-2-2zm64 2h-21v-40h23v38c0 1.103-.897 2-2 2zm6-46c0 1.103-.897 2-2 2h-25v-12h25c1.103 0 2 .897 2 2z" fill="#000000" style="fill: rgb(255, 255, 255);"></path></svg>