<svg width="20.000000" height="15.000000" viewBox="0 0 20 15" fill="none" xmlns="http://www.w3.org/2000/svg" xmlns:xlink="http://www.w3.org/1999/xlink">
	<desc>
			Created with Pixso.
	</desc>
	<defs/>
	<path id="Vector" d="M10.52 7.22C10.35 7.19 10.17 7.17 10 7.17C8.85 7.17 7.69 7.67 7.08 8.68C6.16 10.19 6.73 12.19 8.33 13.06C8.85 13.35 9.43 13.42 10 13.42C11.15 13.42 12.3 12.85 12.91 11.84C13.61 10.69 13.43 9.38 12.63 8.4L13.75 4.34L10.52 7.22ZM11.44 11.12C11.14 11.61 10.59 11.84 10 11.84C9.7 11.84 9.42 11.84 9.16 11.7C8.37 11.26 8.09 10.29 8.55 9.54C8.85 9.05 9.4 8.75 10 8.75C10.29 8.75 10.57 8.82 10.83 8.96C11.62 9.4 11.9 10.37 11.44 11.12ZM10 0C4.47 0 0 4.51 0 9.86C0 11.82 0.6 13.47 1.62 15L5.83 15L5.83 13.42L2.5 13.42C1.89 12.28 1.66 11.15 1.66 9.86C1.66 5.41 5.4 1.57 10 1.57C14.59 1.57 18.33 5.41 18.33 9.86C18.33 11.15 18.1 12.28 17.5 13.42L14.16 13.42L14.16 15L18.33 15C19.36 13.47 20 11.82 20 9.86C20 4.51 15.52 0 10 0Z" fill="#262626" fill-opacity="1.000000" fill-rule="nonzero"/>
</svg>
